%TF.GenerationSoftware,KiCad,Pcbnew,(6.0.4)*%
%TF.CreationDate,2022-07-09T00:06:40+02:00*%
%TF.ProjectId,BSPDandIndication,42535044-616e-4644-996e-646963617469,1.0*%
%TF.SameCoordinates,Original*%
%TF.FileFunction,Legend,Bot*%
%TF.FilePolarity,Positive*%
%FSLAX46Y46*%
G04 Gerber Fmt 4.6, Leading zero omitted, Abs format (unit mm)*
G04 Created by KiCad (PCBNEW (6.0.4)) date 2022-07-09 00:06:40*
%MOMM*%
%LPD*%
G01*
G04 APERTURE LIST*
%ADD10R,3.000000X3.000000*%
%ADD11C,3.000000*%
%ADD12R,1.600000X1.600000*%
%ADD13O,1.600000X1.600000*%
%ADD14C,2.700000*%
G04 APERTURE END LIST*
%LPC*%
D10*
%TO.C,J5*%
X71318500Y-89522500D03*
X71318500Y-94522500D03*
D11*
X66318500Y-94522500D03*
X66318500Y-89522500D03*
%TD*%
D10*
%TO.C,J4*%
X97908500Y-89522500D03*
X97908500Y-94522500D03*
D11*
X92908500Y-89522500D03*
X92908500Y-94522500D03*
X87908500Y-94522500D03*
X87908500Y-89522500D03*
X82908500Y-89522500D03*
X82908500Y-94522500D03*
%TD*%
D12*
%TO.C,U3*%
X28331000Y-80655000D03*
D13*
X28331000Y-83195000D03*
X28331000Y-85735000D03*
X28331000Y-88275000D03*
X35951000Y-88275000D03*
X35951000Y-85735000D03*
X35951000Y-83195000D03*
X35951000Y-80655000D03*
%TD*%
D10*
%TO.C,J6*%
X99348500Y-18597500D03*
X94348500Y-18597500D03*
D11*
X94348500Y-23597500D03*
X99348500Y-23597500D03*
%TD*%
D10*
%TO.C,J3*%
X27143500Y-69032500D03*
X32143500Y-69032500D03*
D11*
X27143500Y-64032500D03*
X32143500Y-64032500D03*
%TD*%
D10*
%TO.C,J1*%
X32051000Y-23312500D03*
X27051000Y-23312500D03*
D11*
X27051000Y-18312500D03*
X32051000Y-18312500D03*
%TD*%
D10*
%TO.C,J2*%
X32051000Y-37465000D03*
X27051000Y-37465000D03*
D11*
X32051000Y-32465000D03*
X27051000Y-32465000D03*
%TD*%
D14*
%TO.C,F1*%
X51181000Y-20955000D03*
D11*
X39931000Y-20955000D03*
X62431000Y-20955000D03*
%TD*%
D10*
%TO.C,J7*%
X54808500Y-89522500D03*
X54808500Y-94522500D03*
D11*
X49808500Y-94522500D03*
X49808500Y-89522500D03*
%TD*%
%TO.C,K1*%
X83361000Y-23495000D03*
X69161000Y-29495000D03*
X69161000Y-17495000D03*
X81361000Y-17495000D03*
X81361000Y-29495000D03*
%TD*%
M02*
