%TF.GenerationSoftware,KiCad,Pcbnew,(6.0.4)*%
%TF.CreationDate,2022-07-09T00:06:40+02:00*%
%TF.ProjectId,BSPDandIndication,42535044-616e-4644-996e-646963617469,1.0*%
%TF.SameCoordinates,Original*%
%TF.FileFunction,Legend,Top*%
%TF.FilePolarity,Positive*%
%FSLAX46Y46*%
G04 Gerber Fmt 4.6, Leading zero omitted, Abs format (unit mm)*
G04 Created by KiCad (PCBNEW (6.0.4)) date 2022-07-09 00:06:40*
%MOMM*%
%LPD*%
G01*
G04 APERTURE LIST*
G04 Aperture macros list*
%AMRoundRect*
0 Rectangle with rounded corners*
0 $1 Rounding radius*
0 $2 $3 $4 $5 $6 $7 $8 $9 X,Y pos of 4 corners*
0 Add a 4 corners polygon primitive as box body*
4,1,4,$2,$3,$4,$5,$6,$7,$8,$9,$2,$3,0*
0 Add four circle primitives for the rounded corners*
1,1,$1+$1,$2,$3*
1,1,$1+$1,$4,$5*
1,1,$1+$1,$6,$7*
1,1,$1+$1,$8,$9*
0 Add four rect primitives between the rounded corners*
20,1,$1+$1,$2,$3,$4,$5,0*
20,1,$1+$1,$4,$5,$6,$7,0*
20,1,$1+$1,$6,$7,$8,$9,0*
20,1,$1+$1,$8,$9,$2,$3,0*%
G04 Aperture macros list end*
%ADD10C,0.150000*%
%ADD11C,0.120000*%
%ADD12R,2.000000X1.500000*%
%ADD13R,2.000000X3.800000*%
%ADD14R,1.300000X1.300000*%
%ADD15R,2.000000X1.300000*%
%ADD16R,3.000000X3.000000*%
%ADD17C,3.000000*%
%ADD18RoundRect,0.250000X0.625000X-0.400000X0.625000X0.400000X-0.625000X0.400000X-0.625000X-0.400000X0*%
%ADD19RoundRect,0.250000X-0.625000X0.400000X-0.625000X-0.400000X0.625000X-0.400000X0.625000X0.400000X0*%
%ADD20RoundRect,0.150000X0.150000X-0.825000X0.150000X0.825000X-0.150000X0.825000X-0.150000X-0.825000X0*%
%ADD21R,2.500000X2.500000*%
%ADD22RoundRect,0.250000X0.650000X-0.412500X0.650000X0.412500X-0.650000X0.412500X-0.650000X-0.412500X0*%
%ADD23RoundRect,0.250000X-0.400000X-0.625000X0.400000X-0.625000X0.400000X0.625000X-0.400000X0.625000X0*%
%ADD24RoundRect,0.250000X0.425000X-0.537500X0.425000X0.537500X-0.425000X0.537500X-0.425000X-0.537500X0*%
%ADD25R,1.500000X2.000000*%
%ADD26R,3.800000X2.000000*%
%ADD27R,1.600000X1.600000*%
%ADD28O,1.600000X1.600000*%
%ADD29R,1.300000X1.700000*%
%ADD30RoundRect,0.250000X-0.537500X-0.425000X0.537500X-0.425000X0.537500X0.425000X-0.537500X0.425000X0*%
%ADD31RoundRect,0.250000X0.400000X0.625000X-0.400000X0.625000X-0.400000X-0.625000X0.400000X-0.625000X0*%
%ADD32RoundRect,0.150000X0.587500X0.150000X-0.587500X0.150000X-0.587500X-0.150000X0.587500X-0.150000X0*%
%ADD33R,1.700000X1.300000*%
%ADD34RoundRect,0.150000X-0.150000X0.825000X-0.150000X-0.825000X0.150000X-0.825000X0.150000X0.825000X0*%
%ADD35C,2.700000*%
G04 APERTURE END LIST*
D10*
X97282095Y-83320000D02*
X97186857Y-83272380D01*
X97044000Y-83272380D01*
X96901142Y-83320000D01*
X96805904Y-83415238D01*
X96758285Y-83510476D01*
X96710666Y-83700952D01*
X96710666Y-83843809D01*
X96758285Y-84034285D01*
X96805904Y-84129523D01*
X96901142Y-84224761D01*
X97044000Y-84272380D01*
X97139238Y-84272380D01*
X97282095Y-84224761D01*
X97329714Y-84177142D01*
X97329714Y-83843809D01*
X97139238Y-83843809D01*
X97758285Y-84272380D02*
X97758285Y-83272380D01*
X98329714Y-84272380D01*
X98329714Y-83272380D01*
X98805904Y-84272380D02*
X98805904Y-83272380D01*
X99044000Y-83272380D01*
X99186857Y-83320000D01*
X99282095Y-83415238D01*
X99329714Y-83510476D01*
X99377333Y-83700952D01*
X99377333Y-83843809D01*
X99329714Y-84034285D01*
X99282095Y-84129523D01*
X99186857Y-84224761D01*
X99044000Y-84272380D01*
X98805904Y-84272380D01*
X77664571Y-96380857D02*
X77664571Y-95523714D01*
X79164571Y-95952285D02*
X77664571Y-95952285D01*
X79164571Y-95023714D02*
X77664571Y-95023714D01*
X77664571Y-94452285D01*
X77736000Y-94309428D01*
X77807428Y-94238000D01*
X77950285Y-94166571D01*
X78164571Y-94166571D01*
X78307428Y-94238000D01*
X78378857Y-94309428D01*
X78450285Y-94452285D01*
X78450285Y-95023714D01*
X79093142Y-93595142D02*
X79164571Y-93380857D01*
X79164571Y-93023714D01*
X79093142Y-92880857D01*
X79021714Y-92809428D01*
X78878857Y-92738000D01*
X78736000Y-92738000D01*
X78593142Y-92809428D01*
X78521714Y-92880857D01*
X78450285Y-93023714D01*
X78378857Y-93309428D01*
X78307428Y-93452285D01*
X78236000Y-93523714D01*
X78093142Y-93595142D01*
X77950285Y-93595142D01*
X77807428Y-93523714D01*
X77736000Y-93452285D01*
X77664571Y-93309428D01*
X77664571Y-92952285D01*
X77736000Y-92738000D01*
%TO.C,U1*%
X42799095Y-36337380D02*
X42799095Y-37146904D01*
X42846714Y-37242142D01*
X42894333Y-37289761D01*
X42989571Y-37337380D01*
X43180047Y-37337380D01*
X43275285Y-37289761D01*
X43322904Y-37242142D01*
X43370523Y-37146904D01*
X43370523Y-36337380D01*
X44370523Y-37337380D02*
X43799095Y-37337380D01*
X44084809Y-37337380D02*
X44084809Y-36337380D01*
X43989571Y-36480238D01*
X43894333Y-36575476D01*
X43799095Y-36623095D01*
%TO.C,RV2*%
X99020761Y-54367380D02*
X98687428Y-53891190D01*
X98449333Y-54367380D02*
X98449333Y-53367380D01*
X98830285Y-53367380D01*
X98925523Y-53415000D01*
X98973142Y-53462619D01*
X99020761Y-53557857D01*
X99020761Y-53700714D01*
X98973142Y-53795952D01*
X98925523Y-53843571D01*
X98830285Y-53891190D01*
X98449333Y-53891190D01*
X99306476Y-53367380D02*
X99639809Y-54367380D01*
X99973142Y-53367380D01*
X100258857Y-53462619D02*
X100306476Y-53415000D01*
X100401714Y-53367380D01*
X100639809Y-53367380D01*
X100735047Y-53415000D01*
X100782666Y-53462619D01*
X100830285Y-53557857D01*
X100830285Y-53653095D01*
X100782666Y-53795952D01*
X100211238Y-54367380D01*
X100830285Y-54367380D01*
%TO.C,J5*%
X70985166Y-101174880D02*
X70985166Y-101889166D01*
X70937547Y-102032023D01*
X70842309Y-102127261D01*
X70699452Y-102174880D01*
X70604214Y-102174880D01*
X71937547Y-101174880D02*
X71461357Y-101174880D01*
X71413738Y-101651071D01*
X71461357Y-101603452D01*
X71556595Y-101555833D01*
X71794690Y-101555833D01*
X71889928Y-101603452D01*
X71937547Y-101651071D01*
X71985166Y-101746309D01*
X71985166Y-101984404D01*
X71937547Y-102079642D01*
X71889928Y-102127261D01*
X71794690Y-102174880D01*
X71556595Y-102174880D01*
X71461357Y-102127261D01*
X71413738Y-102079642D01*
%TO.C,R16*%
X47019380Y-46971857D02*
X46543190Y-47305190D01*
X47019380Y-47543285D02*
X46019380Y-47543285D01*
X46019380Y-47162333D01*
X46067000Y-47067095D01*
X46114619Y-47019476D01*
X46209857Y-46971857D01*
X46352714Y-46971857D01*
X46447952Y-47019476D01*
X46495571Y-47067095D01*
X46543190Y-47162333D01*
X46543190Y-47543285D01*
X47019380Y-46019476D02*
X47019380Y-46590904D01*
X47019380Y-46305190D02*
X46019380Y-46305190D01*
X46162238Y-46400428D01*
X46257476Y-46495666D01*
X46305095Y-46590904D01*
X46019380Y-45162333D02*
X46019380Y-45352809D01*
X46067000Y-45448047D01*
X46114619Y-45495666D01*
X46257476Y-45590904D01*
X46447952Y-45638523D01*
X46828904Y-45638523D01*
X46924142Y-45590904D01*
X46971761Y-45543285D01*
X47019380Y-45448047D01*
X47019380Y-45257571D01*
X46971761Y-45162333D01*
X46924142Y-45114714D01*
X46828904Y-45067095D01*
X46590809Y-45067095D01*
X46495571Y-45114714D01*
X46447952Y-45162333D01*
X46400333Y-45257571D01*
X46400333Y-45448047D01*
X46447952Y-45543285D01*
X46495571Y-45590904D01*
X46590809Y-45638523D01*
%TO.C,J4*%
X97075666Y-101179380D02*
X97075666Y-101893666D01*
X97028047Y-102036523D01*
X96932809Y-102131761D01*
X96789952Y-102179380D01*
X96694714Y-102179380D01*
X97980428Y-101512714D02*
X97980428Y-102179380D01*
X97742333Y-101131761D02*
X97504238Y-101846047D01*
X98123285Y-101846047D01*
%TO.C,R5*%
X94093380Y-41441666D02*
X93617190Y-41775000D01*
X94093380Y-42013095D02*
X93093380Y-42013095D01*
X93093380Y-41632142D01*
X93141000Y-41536904D01*
X93188619Y-41489285D01*
X93283857Y-41441666D01*
X93426714Y-41441666D01*
X93521952Y-41489285D01*
X93569571Y-41536904D01*
X93617190Y-41632142D01*
X93617190Y-42013095D01*
X93093380Y-40536904D02*
X93093380Y-41013095D01*
X93569571Y-41060714D01*
X93521952Y-41013095D01*
X93474333Y-40917857D01*
X93474333Y-40679761D01*
X93521952Y-40584523D01*
X93569571Y-40536904D01*
X93664809Y-40489285D01*
X93902904Y-40489285D01*
X93998142Y-40536904D01*
X94045761Y-40584523D01*
X94093380Y-40679761D01*
X94093380Y-40917857D01*
X94045761Y-41013095D01*
X93998142Y-41060714D01*
%TO.C,U4*%
X82183380Y-64896904D02*
X82992904Y-64896904D01*
X83088142Y-64849285D01*
X83135761Y-64801666D01*
X83183380Y-64706428D01*
X83183380Y-64515952D01*
X83135761Y-64420714D01*
X83088142Y-64373095D01*
X82992904Y-64325476D01*
X82183380Y-64325476D01*
X82516714Y-63420714D02*
X83183380Y-63420714D01*
X82135761Y-63658809D02*
X82850047Y-63896904D01*
X82850047Y-63277857D01*
%TO.C,TP2*%
X39124095Y-79600380D02*
X39695523Y-79600380D01*
X39409809Y-80600380D02*
X39409809Y-79600380D01*
X40028857Y-80600380D02*
X40028857Y-79600380D01*
X40409809Y-79600380D01*
X40505047Y-79648000D01*
X40552666Y-79695619D01*
X40600285Y-79790857D01*
X40600285Y-79933714D01*
X40552666Y-80028952D01*
X40505047Y-80076571D01*
X40409809Y-80124190D01*
X40028857Y-80124190D01*
X40981238Y-79695619D02*
X41028857Y-79648000D01*
X41124095Y-79600380D01*
X41362190Y-79600380D01*
X41457428Y-79648000D01*
X41505047Y-79695619D01*
X41552666Y-79790857D01*
X41552666Y-79886095D01*
X41505047Y-80028952D01*
X40933619Y-80600380D01*
X41552666Y-80600380D01*
%TO.C,R11*%
X77753380Y-62237857D02*
X77277190Y-62571190D01*
X77753380Y-62809285D02*
X76753380Y-62809285D01*
X76753380Y-62428333D01*
X76801000Y-62333095D01*
X76848619Y-62285476D01*
X76943857Y-62237857D01*
X77086714Y-62237857D01*
X77181952Y-62285476D01*
X77229571Y-62333095D01*
X77277190Y-62428333D01*
X77277190Y-62809285D01*
X77753380Y-61285476D02*
X77753380Y-61856904D01*
X77753380Y-61571190D02*
X76753380Y-61571190D01*
X76896238Y-61666428D01*
X76991476Y-61761666D01*
X77039095Y-61856904D01*
X77753380Y-60333095D02*
X77753380Y-60904523D01*
X77753380Y-60618809D02*
X76753380Y-60618809D01*
X76896238Y-60714047D01*
X76991476Y-60809285D01*
X77039095Y-60904523D01*
%TO.C,R10*%
X77753380Y-67317857D02*
X77277190Y-67651190D01*
X77753380Y-67889285D02*
X76753380Y-67889285D01*
X76753380Y-67508333D01*
X76801000Y-67413095D01*
X76848619Y-67365476D01*
X76943857Y-67317857D01*
X77086714Y-67317857D01*
X77181952Y-67365476D01*
X77229571Y-67413095D01*
X77277190Y-67508333D01*
X77277190Y-67889285D01*
X77753380Y-66365476D02*
X77753380Y-66936904D01*
X77753380Y-66651190D02*
X76753380Y-66651190D01*
X76896238Y-66746428D01*
X76991476Y-66841666D01*
X77039095Y-66936904D01*
X76753380Y-65746428D02*
X76753380Y-65651190D01*
X76801000Y-65555952D01*
X76848619Y-65508333D01*
X76943857Y-65460714D01*
X77134333Y-65413095D01*
X77372428Y-65413095D01*
X77562904Y-65460714D01*
X77658142Y-65508333D01*
X77705761Y-65555952D01*
X77753380Y-65651190D01*
X77753380Y-65746428D01*
X77705761Y-65841666D01*
X77658142Y-65889285D01*
X77562904Y-65936904D01*
X77372428Y-65984523D01*
X77134333Y-65984523D01*
X76943857Y-65936904D01*
X76848619Y-65889285D01*
X76801000Y-65841666D01*
X76753380Y-65746428D01*
%TO.C,C4*%
X21748142Y-79541666D02*
X21795761Y-79589285D01*
X21843380Y-79732142D01*
X21843380Y-79827380D01*
X21795761Y-79970238D01*
X21700523Y-80065476D01*
X21605285Y-80113095D01*
X21414809Y-80160714D01*
X21271952Y-80160714D01*
X21081476Y-80113095D01*
X20986238Y-80065476D01*
X20891000Y-79970238D01*
X20843380Y-79827380D01*
X20843380Y-79732142D01*
X20891000Y-79589285D01*
X20938619Y-79541666D01*
X21176714Y-78684523D02*
X21843380Y-78684523D01*
X20795761Y-78922619D02*
X21510047Y-79160714D01*
X21510047Y-78541666D01*
%TO.C,R13*%
X87368142Y-33557380D02*
X87034809Y-33081190D01*
X86796714Y-33557380D02*
X86796714Y-32557380D01*
X87177666Y-32557380D01*
X87272904Y-32605000D01*
X87320523Y-32652619D01*
X87368142Y-32747857D01*
X87368142Y-32890714D01*
X87320523Y-32985952D01*
X87272904Y-33033571D01*
X87177666Y-33081190D01*
X86796714Y-33081190D01*
X88320523Y-33557380D02*
X87749095Y-33557380D01*
X88034809Y-33557380D02*
X88034809Y-32557380D01*
X87939571Y-32700238D01*
X87844333Y-32795476D01*
X87749095Y-32843095D01*
X88653857Y-32557380D02*
X89272904Y-32557380D01*
X88939571Y-32938333D01*
X89082428Y-32938333D01*
X89177666Y-32985952D01*
X89225285Y-33033571D01*
X89272904Y-33128809D01*
X89272904Y-33366904D01*
X89225285Y-33462142D01*
X89177666Y-33509761D01*
X89082428Y-33557380D01*
X88796714Y-33557380D01*
X88701476Y-33509761D01*
X88653857Y-33462142D01*
%TO.C,C7*%
X52074142Y-45673166D02*
X52121761Y-45720785D01*
X52169380Y-45863642D01*
X52169380Y-45958880D01*
X52121761Y-46101738D01*
X52026523Y-46196976D01*
X51931285Y-46244595D01*
X51740809Y-46292214D01*
X51597952Y-46292214D01*
X51407476Y-46244595D01*
X51312238Y-46196976D01*
X51217000Y-46101738D01*
X51169380Y-45958880D01*
X51169380Y-45863642D01*
X51217000Y-45720785D01*
X51264619Y-45673166D01*
X51169380Y-45339833D02*
X51169380Y-44673166D01*
X52169380Y-45101738D01*
%TO.C,C5*%
X71278142Y-49061666D02*
X71325761Y-49109285D01*
X71373380Y-49252142D01*
X71373380Y-49347380D01*
X71325761Y-49490238D01*
X71230523Y-49585476D01*
X71135285Y-49633095D01*
X70944809Y-49680714D01*
X70801952Y-49680714D01*
X70611476Y-49633095D01*
X70516238Y-49585476D01*
X70421000Y-49490238D01*
X70373380Y-49347380D01*
X70373380Y-49252142D01*
X70421000Y-49109285D01*
X70468619Y-49061666D01*
X70373380Y-48156904D02*
X70373380Y-48633095D01*
X70849571Y-48680714D01*
X70801952Y-48633095D01*
X70754333Y-48537857D01*
X70754333Y-48299761D01*
X70801952Y-48204523D01*
X70849571Y-48156904D01*
X70944809Y-48109285D01*
X71182904Y-48109285D01*
X71278142Y-48156904D01*
X71325761Y-48204523D01*
X71373380Y-48299761D01*
X71373380Y-48537857D01*
X71325761Y-48633095D01*
X71278142Y-48680714D01*
%TO.C,R4*%
X86643380Y-41441666D02*
X86167190Y-41775000D01*
X86643380Y-42013095D02*
X85643380Y-42013095D01*
X85643380Y-41632142D01*
X85691000Y-41536904D01*
X85738619Y-41489285D01*
X85833857Y-41441666D01*
X85976714Y-41441666D01*
X86071952Y-41489285D01*
X86119571Y-41536904D01*
X86167190Y-41632142D01*
X86167190Y-42013095D01*
X85976714Y-40584523D02*
X86643380Y-40584523D01*
X85595761Y-40822619D02*
X86310047Y-41060714D01*
X86310047Y-40441666D01*
%TO.C,U2*%
X50053380Y-73786904D02*
X50862904Y-73786904D01*
X50958142Y-73739285D01*
X51005761Y-73691666D01*
X51053380Y-73596428D01*
X51053380Y-73405952D01*
X51005761Y-73310714D01*
X50958142Y-73263095D01*
X50862904Y-73215476D01*
X50053380Y-73215476D01*
X50148619Y-72786904D02*
X50101000Y-72739285D01*
X50053380Y-72644047D01*
X50053380Y-72405952D01*
X50101000Y-72310714D01*
X50148619Y-72263095D01*
X50243857Y-72215476D01*
X50339095Y-72215476D01*
X50481952Y-72263095D01*
X51053380Y-72834523D01*
X51053380Y-72215476D01*
%TO.C,U3*%
X31379095Y-77777380D02*
X31379095Y-78586904D01*
X31426714Y-78682142D01*
X31474333Y-78729761D01*
X31569571Y-78777380D01*
X31760047Y-78777380D01*
X31855285Y-78729761D01*
X31902904Y-78682142D01*
X31950523Y-78586904D01*
X31950523Y-77777380D01*
X32331476Y-77777380D02*
X32950523Y-77777380D01*
X32617190Y-78158333D01*
X32760047Y-78158333D01*
X32855285Y-78205952D01*
X32902904Y-78253571D01*
X32950523Y-78348809D01*
X32950523Y-78586904D01*
X32902904Y-78682142D01*
X32855285Y-78729761D01*
X32760047Y-78777380D01*
X32474333Y-78777380D01*
X32379095Y-78729761D01*
X32331476Y-78682142D01*
%TO.C,TP1*%
X41029095Y-85569380D02*
X41600523Y-85569380D01*
X41314809Y-86569380D02*
X41314809Y-85569380D01*
X41933857Y-86569380D02*
X41933857Y-85569380D01*
X42314809Y-85569380D01*
X42410047Y-85617000D01*
X42457666Y-85664619D01*
X42505285Y-85759857D01*
X42505285Y-85902714D01*
X42457666Y-85997952D01*
X42410047Y-86045571D01*
X42314809Y-86093190D01*
X41933857Y-86093190D01*
X43457666Y-86569380D02*
X42886238Y-86569380D01*
X43171952Y-86569380D02*
X43171952Y-85569380D01*
X43076714Y-85712238D01*
X42981476Y-85807476D01*
X42886238Y-85855095D01*
%TO.C,R8*%
X86643380Y-50331666D02*
X86167190Y-50665000D01*
X86643380Y-50903095D02*
X85643380Y-50903095D01*
X85643380Y-50522142D01*
X85691000Y-50426904D01*
X85738619Y-50379285D01*
X85833857Y-50331666D01*
X85976714Y-50331666D01*
X86071952Y-50379285D01*
X86119571Y-50426904D01*
X86167190Y-50522142D01*
X86167190Y-50903095D01*
X86071952Y-49760238D02*
X86024333Y-49855476D01*
X85976714Y-49903095D01*
X85881476Y-49950714D01*
X85833857Y-49950714D01*
X85738619Y-49903095D01*
X85691000Y-49855476D01*
X85643380Y-49760238D01*
X85643380Y-49569761D01*
X85691000Y-49474523D01*
X85738619Y-49426904D01*
X85833857Y-49379285D01*
X85881476Y-49379285D01*
X85976714Y-49426904D01*
X86024333Y-49474523D01*
X86071952Y-49569761D01*
X86071952Y-49760238D01*
X86119571Y-49855476D01*
X86167190Y-49903095D01*
X86262428Y-49950714D01*
X86452904Y-49950714D01*
X86548142Y-49903095D01*
X86595761Y-49855476D01*
X86643380Y-49760238D01*
X86643380Y-49569761D01*
X86595761Y-49474523D01*
X86548142Y-49426904D01*
X86452904Y-49379285D01*
X86262428Y-49379285D01*
X86167190Y-49426904D01*
X86119571Y-49474523D01*
X86071952Y-49569761D01*
%TO.C,R2*%
X90283380Y-82081666D02*
X89807190Y-82415000D01*
X90283380Y-82653095D02*
X89283380Y-82653095D01*
X89283380Y-82272142D01*
X89331000Y-82176904D01*
X89378619Y-82129285D01*
X89473857Y-82081666D01*
X89616714Y-82081666D01*
X89711952Y-82129285D01*
X89759571Y-82176904D01*
X89807190Y-82272142D01*
X89807190Y-82653095D01*
X89378619Y-81700714D02*
X89331000Y-81653095D01*
X89283380Y-81557857D01*
X89283380Y-81319761D01*
X89331000Y-81224523D01*
X89378619Y-81176904D01*
X89473857Y-81129285D01*
X89569095Y-81129285D01*
X89711952Y-81176904D01*
X90283380Y-81748333D01*
X90283380Y-81129285D01*
%TO.C,RV1*%
X99020761Y-45477380D02*
X98687428Y-45001190D01*
X98449333Y-45477380D02*
X98449333Y-44477380D01*
X98830285Y-44477380D01*
X98925523Y-44525000D01*
X98973142Y-44572619D01*
X99020761Y-44667857D01*
X99020761Y-44810714D01*
X98973142Y-44905952D01*
X98925523Y-44953571D01*
X98830285Y-45001190D01*
X98449333Y-45001190D01*
X99306476Y-44477380D02*
X99639809Y-45477380D01*
X99973142Y-44477380D01*
X100830285Y-45477380D02*
X100258857Y-45477380D01*
X100544571Y-45477380D02*
X100544571Y-44477380D01*
X100449333Y-44620238D01*
X100354095Y-44715476D01*
X100258857Y-44763095D01*
%TO.C,J6*%
X106000880Y-18930833D02*
X106715166Y-18930833D01*
X106858023Y-18978452D01*
X106953261Y-19073690D01*
X107000880Y-19216547D01*
X107000880Y-19311785D01*
X106000880Y-18026071D02*
X106000880Y-18216547D01*
X106048500Y-18311785D01*
X106096119Y-18359404D01*
X106238976Y-18454642D01*
X106429452Y-18502261D01*
X106810404Y-18502261D01*
X106905642Y-18454642D01*
X106953261Y-18407023D01*
X107000880Y-18311785D01*
X107000880Y-18121309D01*
X106953261Y-18026071D01*
X106905642Y-17978452D01*
X106810404Y-17930833D01*
X106572309Y-17930833D01*
X106477071Y-17978452D01*
X106429452Y-18026071D01*
X106381833Y-18121309D01*
X106381833Y-18311785D01*
X106429452Y-18407023D01*
X106477071Y-18454642D01*
X106572309Y-18502261D01*
%TO.C,D6*%
X88542904Y-58967380D02*
X88542904Y-57967380D01*
X88781000Y-57967380D01*
X88923857Y-58015000D01*
X89019095Y-58110238D01*
X89066714Y-58205476D01*
X89114333Y-58395952D01*
X89114333Y-58538809D01*
X89066714Y-58729285D01*
X89019095Y-58824523D01*
X88923857Y-58919761D01*
X88781000Y-58967380D01*
X88542904Y-58967380D01*
X89971476Y-57967380D02*
X89781000Y-57967380D01*
X89685761Y-58015000D01*
X89638142Y-58062619D01*
X89542904Y-58205476D01*
X89495285Y-58395952D01*
X89495285Y-58776904D01*
X89542904Y-58872142D01*
X89590523Y-58919761D01*
X89685761Y-58967380D01*
X89876238Y-58967380D01*
X89971476Y-58919761D01*
X90019095Y-58872142D01*
X90066714Y-58776904D01*
X90066714Y-58538809D01*
X90019095Y-58443571D01*
X89971476Y-58395952D01*
X89876238Y-58348333D01*
X89685761Y-58348333D01*
X89590523Y-58395952D01*
X89542904Y-58443571D01*
X89495285Y-58538809D01*
%TO.C,J3*%
X19395880Y-69365833D02*
X20110166Y-69365833D01*
X20253023Y-69413452D01*
X20348261Y-69508690D01*
X20395880Y-69651547D01*
X20395880Y-69746785D01*
X19395880Y-68984880D02*
X19395880Y-68365833D01*
X19776833Y-68699166D01*
X19776833Y-68556309D01*
X19824452Y-68461071D01*
X19872071Y-68413452D01*
X19967309Y-68365833D01*
X20205404Y-68365833D01*
X20300642Y-68413452D01*
X20348261Y-68461071D01*
X20395880Y-68556309D01*
X20395880Y-68842023D01*
X20348261Y-68937261D01*
X20300642Y-68984880D01*
%TO.C,R3*%
X95363380Y-82081666D02*
X94887190Y-82415000D01*
X95363380Y-82653095D02*
X94363380Y-82653095D01*
X94363380Y-82272142D01*
X94411000Y-82176904D01*
X94458619Y-82129285D01*
X94553857Y-82081666D01*
X94696714Y-82081666D01*
X94791952Y-82129285D01*
X94839571Y-82176904D01*
X94887190Y-82272142D01*
X94887190Y-82653095D01*
X94363380Y-81748333D02*
X94363380Y-81129285D01*
X94744333Y-81462619D01*
X94744333Y-81319761D01*
X94791952Y-81224523D01*
X94839571Y-81176904D01*
X94934809Y-81129285D01*
X95172904Y-81129285D01*
X95268142Y-81176904D01*
X95315761Y-81224523D01*
X95363380Y-81319761D01*
X95363380Y-81605476D01*
X95315761Y-81700714D01*
X95268142Y-81748333D01*
%TO.C,C1*%
X60694333Y-27182142D02*
X60646714Y-27229761D01*
X60503857Y-27277380D01*
X60408619Y-27277380D01*
X60265761Y-27229761D01*
X60170523Y-27134523D01*
X60122904Y-27039285D01*
X60075285Y-26848809D01*
X60075285Y-26705952D01*
X60122904Y-26515476D01*
X60170523Y-26420238D01*
X60265761Y-26325000D01*
X60408619Y-26277380D01*
X60503857Y-26277380D01*
X60646714Y-26325000D01*
X60694333Y-26372619D01*
X61646714Y-27277380D02*
X61075285Y-27277380D01*
X61361000Y-27277380D02*
X61361000Y-26277380D01*
X61265761Y-26420238D01*
X61170523Y-26515476D01*
X61075285Y-26563095D01*
%TO.C,J1*%
X19303380Y-23645833D02*
X20017666Y-23645833D01*
X20160523Y-23693452D01*
X20255761Y-23788690D01*
X20303380Y-23931547D01*
X20303380Y-24026785D01*
X20303380Y-22645833D02*
X20303380Y-23217261D01*
X20303380Y-22931547D02*
X19303380Y-22931547D01*
X19446238Y-23026785D01*
X19541476Y-23122023D01*
X19589095Y-23217261D01*
%TO.C,R6*%
X63968333Y-84695380D02*
X63635000Y-84219190D01*
X63396904Y-84695380D02*
X63396904Y-83695380D01*
X63777857Y-83695380D01*
X63873095Y-83743000D01*
X63920714Y-83790619D01*
X63968333Y-83885857D01*
X63968333Y-84028714D01*
X63920714Y-84123952D01*
X63873095Y-84171571D01*
X63777857Y-84219190D01*
X63396904Y-84219190D01*
X64825476Y-83695380D02*
X64635000Y-83695380D01*
X64539761Y-83743000D01*
X64492142Y-83790619D01*
X64396904Y-83933476D01*
X64349285Y-84123952D01*
X64349285Y-84504904D01*
X64396904Y-84600142D01*
X64444523Y-84647761D01*
X64539761Y-84695380D01*
X64730238Y-84695380D01*
X64825476Y-84647761D01*
X64873095Y-84600142D01*
X64920714Y-84504904D01*
X64920714Y-84266809D01*
X64873095Y-84171571D01*
X64825476Y-84123952D01*
X64730238Y-84076333D01*
X64539761Y-84076333D01*
X64444523Y-84123952D01*
X64396904Y-84171571D01*
X64349285Y-84266809D01*
%TO.C,C3*%
X95408142Y-64301666D02*
X95455761Y-64349285D01*
X95503380Y-64492142D01*
X95503380Y-64587380D01*
X95455761Y-64730238D01*
X95360523Y-64825476D01*
X95265285Y-64873095D01*
X95074809Y-64920714D01*
X94931952Y-64920714D01*
X94741476Y-64873095D01*
X94646238Y-64825476D01*
X94551000Y-64730238D01*
X94503380Y-64587380D01*
X94503380Y-64492142D01*
X94551000Y-64349285D01*
X94598619Y-64301666D01*
X94503380Y-63968333D02*
X94503380Y-63349285D01*
X94884333Y-63682619D01*
X94884333Y-63539761D01*
X94931952Y-63444523D01*
X94979571Y-63396904D01*
X95074809Y-63349285D01*
X95312904Y-63349285D01*
X95408142Y-63396904D01*
X95455761Y-63444523D01*
X95503380Y-63539761D01*
X95503380Y-63825476D01*
X95455761Y-63920714D01*
X95408142Y-63968333D01*
%TO.C,D1*%
X60122904Y-30837380D02*
X60122904Y-29837380D01*
X60361000Y-29837380D01*
X60503857Y-29885000D01*
X60599095Y-29980238D01*
X60646714Y-30075476D01*
X60694333Y-30265952D01*
X60694333Y-30408809D01*
X60646714Y-30599285D01*
X60599095Y-30694523D01*
X60503857Y-30789761D01*
X60361000Y-30837380D01*
X60122904Y-30837380D01*
X61646714Y-30837380D02*
X61075285Y-30837380D01*
X61361000Y-30837380D02*
X61361000Y-29837380D01*
X61265761Y-29980238D01*
X61170523Y-30075476D01*
X61075285Y-30123095D01*
%TO.C,R14*%
X75043380Y-67317857D02*
X74567190Y-67651190D01*
X75043380Y-67889285D02*
X74043380Y-67889285D01*
X74043380Y-67508333D01*
X74091000Y-67413095D01*
X74138619Y-67365476D01*
X74233857Y-67317857D01*
X74376714Y-67317857D01*
X74471952Y-67365476D01*
X74519571Y-67413095D01*
X74567190Y-67508333D01*
X74567190Y-67889285D01*
X75043380Y-66365476D02*
X75043380Y-66936904D01*
X75043380Y-66651190D02*
X74043380Y-66651190D01*
X74186238Y-66746428D01*
X74281476Y-66841666D01*
X74329095Y-66936904D01*
X74376714Y-65508333D02*
X75043380Y-65508333D01*
X73995761Y-65746428D02*
X74710047Y-65984523D01*
X74710047Y-65365476D01*
%TO.C,R9*%
X94093380Y-50331666D02*
X93617190Y-50665000D01*
X94093380Y-50903095D02*
X93093380Y-50903095D01*
X93093380Y-50522142D01*
X93141000Y-50426904D01*
X93188619Y-50379285D01*
X93283857Y-50331666D01*
X93426714Y-50331666D01*
X93521952Y-50379285D01*
X93569571Y-50426904D01*
X93617190Y-50522142D01*
X93617190Y-50903095D01*
X94093380Y-49855476D02*
X94093380Y-49665000D01*
X94045761Y-49569761D01*
X93998142Y-49522142D01*
X93855285Y-49426904D01*
X93664809Y-49379285D01*
X93283857Y-49379285D01*
X93188619Y-49426904D01*
X93141000Y-49474523D01*
X93093380Y-49569761D01*
X93093380Y-49760238D01*
X93141000Y-49855476D01*
X93188619Y-49903095D01*
X93283857Y-49950714D01*
X93521952Y-49950714D01*
X93617190Y-49903095D01*
X93664809Y-49855476D01*
X93712428Y-49760238D01*
X93712428Y-49569761D01*
X93664809Y-49474523D01*
X93617190Y-49426904D01*
X93521952Y-49379285D01*
%TO.C,Q1*%
X92995761Y-34062619D02*
X92900523Y-34015000D01*
X92805285Y-33919761D01*
X92662428Y-33776904D01*
X92567190Y-33729285D01*
X92471952Y-33729285D01*
X92519571Y-33967380D02*
X92424333Y-33919761D01*
X92329095Y-33824523D01*
X92281476Y-33634047D01*
X92281476Y-33300714D01*
X92329095Y-33110238D01*
X92424333Y-33015000D01*
X92519571Y-32967380D01*
X92710047Y-32967380D01*
X92805285Y-33015000D01*
X92900523Y-33110238D01*
X92948142Y-33300714D01*
X92948142Y-33634047D01*
X92900523Y-33824523D01*
X92805285Y-33919761D01*
X92710047Y-33967380D01*
X92519571Y-33967380D01*
X93900523Y-33967380D02*
X93329095Y-33967380D01*
X93614809Y-33967380D02*
X93614809Y-32967380D01*
X93519571Y-33110238D01*
X93424333Y-33205476D01*
X93329095Y-33253095D01*
%TO.C,C6*%
X53554333Y-30992142D02*
X53506714Y-31039761D01*
X53363857Y-31087380D01*
X53268619Y-31087380D01*
X53125761Y-31039761D01*
X53030523Y-30944523D01*
X52982904Y-30849285D01*
X52935285Y-30658809D01*
X52935285Y-30515952D01*
X52982904Y-30325476D01*
X53030523Y-30230238D01*
X53125761Y-30135000D01*
X53268619Y-30087380D01*
X53363857Y-30087380D01*
X53506714Y-30135000D01*
X53554333Y-30182619D01*
X54411476Y-30087380D02*
X54221000Y-30087380D01*
X54125761Y-30135000D01*
X54078142Y-30182619D01*
X53982904Y-30325476D01*
X53935285Y-30515952D01*
X53935285Y-30896904D01*
X53982904Y-30992142D01*
X54030523Y-31039761D01*
X54125761Y-31087380D01*
X54316238Y-31087380D01*
X54411476Y-31039761D01*
X54459095Y-30992142D01*
X54506714Y-30896904D01*
X54506714Y-30658809D01*
X54459095Y-30563571D01*
X54411476Y-30515952D01*
X54316238Y-30468333D01*
X54125761Y-30468333D01*
X54030523Y-30515952D01*
X53982904Y-30563571D01*
X53935285Y-30658809D01*
%TO.C,C2*%
X46355833Y-64266142D02*
X46308214Y-64313761D01*
X46165357Y-64361380D01*
X46070119Y-64361380D01*
X45927261Y-64313761D01*
X45832023Y-64218523D01*
X45784404Y-64123285D01*
X45736785Y-63932809D01*
X45736785Y-63789952D01*
X45784404Y-63599476D01*
X45832023Y-63504238D01*
X45927261Y-63409000D01*
X46070119Y-63361380D01*
X46165357Y-63361380D01*
X46308214Y-63409000D01*
X46355833Y-63456619D01*
X46736785Y-63456619D02*
X46784404Y-63409000D01*
X46879642Y-63361380D01*
X47117738Y-63361380D01*
X47212976Y-63409000D01*
X47260595Y-63456619D01*
X47308214Y-63551857D01*
X47308214Y-63647095D01*
X47260595Y-63789952D01*
X46689166Y-64361380D01*
X47308214Y-64361380D01*
%TO.C,D5*%
X71223380Y-73763095D02*
X70223380Y-73763095D01*
X70223380Y-73525000D01*
X70271000Y-73382142D01*
X70366238Y-73286904D01*
X70461476Y-73239285D01*
X70651952Y-73191666D01*
X70794809Y-73191666D01*
X70985285Y-73239285D01*
X71080523Y-73286904D01*
X71175761Y-73382142D01*
X71223380Y-73525000D01*
X71223380Y-73763095D01*
X70223380Y-72286904D02*
X70223380Y-72763095D01*
X70699571Y-72810714D01*
X70651952Y-72763095D01*
X70604333Y-72667857D01*
X70604333Y-72429761D01*
X70651952Y-72334523D01*
X70699571Y-72286904D01*
X70794809Y-72239285D01*
X71032904Y-72239285D01*
X71128142Y-72286904D01*
X71175761Y-72334523D01*
X71223380Y-72429761D01*
X71223380Y-72667857D01*
X71175761Y-72763095D01*
X71128142Y-72810714D01*
%TO.C,R17*%
X31488142Y-93247380D02*
X31154809Y-92771190D01*
X30916714Y-93247380D02*
X30916714Y-92247380D01*
X31297666Y-92247380D01*
X31392904Y-92295000D01*
X31440523Y-92342619D01*
X31488142Y-92437857D01*
X31488142Y-92580714D01*
X31440523Y-92675952D01*
X31392904Y-92723571D01*
X31297666Y-92771190D01*
X30916714Y-92771190D01*
X32440523Y-93247380D02*
X31869095Y-93247380D01*
X32154809Y-93247380D02*
X32154809Y-92247380D01*
X32059571Y-92390238D01*
X31964333Y-92485476D01*
X31869095Y-92533095D01*
X32773857Y-92247380D02*
X33440523Y-92247380D01*
X33011952Y-93247380D01*
%TO.C,J2*%
X19303380Y-37798333D02*
X20017666Y-37798333D01*
X20160523Y-37845952D01*
X20255761Y-37941190D01*
X20303380Y-38084047D01*
X20303380Y-38179285D01*
X19398619Y-37369761D02*
X19351000Y-37322142D01*
X19303380Y-37226904D01*
X19303380Y-36988809D01*
X19351000Y-36893571D01*
X19398619Y-36845952D01*
X19493857Y-36798333D01*
X19589095Y-36798333D01*
X19731952Y-36845952D01*
X20303380Y-37417380D01*
X20303380Y-36798333D01*
%TO.C,R1*%
X85203380Y-82081666D02*
X84727190Y-82415000D01*
X85203380Y-82653095D02*
X84203380Y-82653095D01*
X84203380Y-82272142D01*
X84251000Y-82176904D01*
X84298619Y-82129285D01*
X84393857Y-82081666D01*
X84536714Y-82081666D01*
X84631952Y-82129285D01*
X84679571Y-82176904D01*
X84727190Y-82272142D01*
X84727190Y-82653095D01*
X85203380Y-81129285D02*
X85203380Y-81700714D01*
X85203380Y-81415000D02*
X84203380Y-81415000D01*
X84346238Y-81510238D01*
X84441476Y-81605476D01*
X84489095Y-81700714D01*
%TO.C,D7*%
X55919380Y-53697095D02*
X54919380Y-53697095D01*
X54919380Y-53459000D01*
X54967000Y-53316142D01*
X55062238Y-53220904D01*
X55157476Y-53173285D01*
X55347952Y-53125666D01*
X55490809Y-53125666D01*
X55681285Y-53173285D01*
X55776523Y-53220904D01*
X55871761Y-53316142D01*
X55919380Y-53459000D01*
X55919380Y-53697095D01*
X54919380Y-52792333D02*
X54919380Y-52125666D01*
X55919380Y-52554238D01*
%TO.C,U5*%
X68003380Y-49656904D02*
X68812904Y-49656904D01*
X68908142Y-49609285D01*
X68955761Y-49561666D01*
X69003380Y-49466428D01*
X69003380Y-49275952D01*
X68955761Y-49180714D01*
X68908142Y-49133095D01*
X68812904Y-49085476D01*
X68003380Y-49085476D01*
X68003380Y-48133095D02*
X68003380Y-48609285D01*
X68479571Y-48656904D01*
X68431952Y-48609285D01*
X68384333Y-48514047D01*
X68384333Y-48275952D01*
X68431952Y-48180714D01*
X68479571Y-48133095D01*
X68574809Y-48085476D01*
X68812904Y-48085476D01*
X68908142Y-48133095D01*
X68955761Y-48180714D01*
X69003380Y-48275952D01*
X69003380Y-48514047D01*
X68955761Y-48609285D01*
X68908142Y-48656904D01*
%TO.C,TP3*%
X21979095Y-85569380D02*
X22550523Y-85569380D01*
X22264809Y-86569380D02*
X22264809Y-85569380D01*
X22883857Y-86569380D02*
X22883857Y-85569380D01*
X23264809Y-85569380D01*
X23360047Y-85617000D01*
X23407666Y-85664619D01*
X23455285Y-85759857D01*
X23455285Y-85902714D01*
X23407666Y-85997952D01*
X23360047Y-86045571D01*
X23264809Y-86093190D01*
X22883857Y-86093190D01*
X23788619Y-85569380D02*
X24407666Y-85569380D01*
X24074333Y-85950333D01*
X24217190Y-85950333D01*
X24312428Y-85997952D01*
X24360047Y-86045571D01*
X24407666Y-86140809D01*
X24407666Y-86378904D01*
X24360047Y-86474142D01*
X24312428Y-86521761D01*
X24217190Y-86569380D01*
X23931476Y-86569380D01*
X23836238Y-86521761D01*
X23788619Y-86474142D01*
%TO.C,F1*%
X50847666Y-14883571D02*
X50514333Y-14883571D01*
X50514333Y-15407380D02*
X50514333Y-14407380D01*
X50990523Y-14407380D01*
X51895285Y-15407380D02*
X51323857Y-15407380D01*
X51609571Y-15407380D02*
X51609571Y-14407380D01*
X51514333Y-14550238D01*
X51419095Y-14645476D01*
X51323857Y-14693095D01*
%TO.C,D2*%
X81383380Y-73763095D02*
X80383380Y-73763095D01*
X80383380Y-73525000D01*
X80431000Y-73382142D01*
X80526238Y-73286904D01*
X80621476Y-73239285D01*
X80811952Y-73191666D01*
X80954809Y-73191666D01*
X81145285Y-73239285D01*
X81240523Y-73286904D01*
X81335761Y-73382142D01*
X81383380Y-73525000D01*
X81383380Y-73763095D01*
X80478619Y-72810714D02*
X80431000Y-72763095D01*
X80383380Y-72667857D01*
X80383380Y-72429761D01*
X80431000Y-72334523D01*
X80478619Y-72286904D01*
X80573857Y-72239285D01*
X80669095Y-72239285D01*
X80811952Y-72286904D01*
X81383380Y-72858333D01*
X81383380Y-72239285D01*
%TO.C,D3*%
X91543380Y-73763095D02*
X90543380Y-73763095D01*
X90543380Y-73525000D01*
X90591000Y-73382142D01*
X90686238Y-73286904D01*
X90781476Y-73239285D01*
X90971952Y-73191666D01*
X91114809Y-73191666D01*
X91305285Y-73239285D01*
X91400523Y-73286904D01*
X91495761Y-73382142D01*
X91543380Y-73525000D01*
X91543380Y-73763095D01*
X90543380Y-72858333D02*
X90543380Y-72239285D01*
X90924333Y-72572619D01*
X90924333Y-72429761D01*
X90971952Y-72334523D01*
X91019571Y-72286904D01*
X91114809Y-72239285D01*
X91352904Y-72239285D01*
X91448142Y-72286904D01*
X91495761Y-72334523D01*
X91543380Y-72429761D01*
X91543380Y-72715476D01*
X91495761Y-72810714D01*
X91448142Y-72858333D01*
%TO.C,D4*%
X87145904Y-26360380D02*
X87145904Y-25360380D01*
X87384000Y-25360380D01*
X87526857Y-25408000D01*
X87622095Y-25503238D01*
X87669714Y-25598476D01*
X87717333Y-25788952D01*
X87717333Y-25931809D01*
X87669714Y-26122285D01*
X87622095Y-26217523D01*
X87526857Y-26312761D01*
X87384000Y-26360380D01*
X87145904Y-26360380D01*
X88574476Y-25693714D02*
X88574476Y-26360380D01*
X88336380Y-25312761D02*
X88098285Y-26027047D01*
X88717333Y-26027047D01*
%TO.C,R12*%
X62513380Y-73667857D02*
X62037190Y-74001190D01*
X62513380Y-74239285D02*
X61513380Y-74239285D01*
X61513380Y-73858333D01*
X61561000Y-73763095D01*
X61608619Y-73715476D01*
X61703857Y-73667857D01*
X61846714Y-73667857D01*
X61941952Y-73715476D01*
X61989571Y-73763095D01*
X62037190Y-73858333D01*
X62037190Y-74239285D01*
X62513380Y-72715476D02*
X62513380Y-73286904D01*
X62513380Y-73001190D02*
X61513380Y-73001190D01*
X61656238Y-73096428D01*
X61751476Y-73191666D01*
X61799095Y-73286904D01*
X61608619Y-72334523D02*
X61561000Y-72286904D01*
X61513380Y-72191666D01*
X61513380Y-71953571D01*
X61561000Y-71858333D01*
X61608619Y-71810714D01*
X61703857Y-71763095D01*
X61799095Y-71763095D01*
X61941952Y-71810714D01*
X62513380Y-72382142D01*
X62513380Y-71763095D01*
%TO.C,J7*%
X54475166Y-101174880D02*
X54475166Y-101889166D01*
X54427547Y-102032023D01*
X54332309Y-102127261D01*
X54189452Y-102174880D01*
X54094214Y-102174880D01*
X54856119Y-101174880D02*
X55522785Y-101174880D01*
X55094214Y-102174880D01*
%TO.C,K1*%
X74522904Y-14747380D02*
X74522904Y-13747380D01*
X75094333Y-14747380D02*
X74665761Y-14175952D01*
X75094333Y-13747380D02*
X74522904Y-14318809D01*
X76046714Y-14747380D02*
X75475285Y-14747380D01*
X75761000Y-14747380D02*
X75761000Y-13747380D01*
X75665761Y-13890238D01*
X75570523Y-13985476D01*
X75475285Y-14033095D01*
%TO.C,R7*%
X42124333Y-93247380D02*
X41791000Y-92771190D01*
X41552904Y-93247380D02*
X41552904Y-92247380D01*
X41933857Y-92247380D01*
X42029095Y-92295000D01*
X42076714Y-92342619D01*
X42124333Y-92437857D01*
X42124333Y-92580714D01*
X42076714Y-92675952D01*
X42029095Y-92723571D01*
X41933857Y-92771190D01*
X41552904Y-92771190D01*
X42457666Y-92247380D02*
X43124333Y-92247380D01*
X42695761Y-93247380D01*
%TO.C,R15*%
X47019380Y-52331857D02*
X46543190Y-52665190D01*
X47019380Y-52903285D02*
X46019380Y-52903285D01*
X46019380Y-52522333D01*
X46067000Y-52427095D01*
X46114619Y-52379476D01*
X46209857Y-52331857D01*
X46352714Y-52331857D01*
X46447952Y-52379476D01*
X46495571Y-52427095D01*
X46543190Y-52522333D01*
X46543190Y-52903285D01*
X47019380Y-51379476D02*
X47019380Y-51950904D01*
X47019380Y-51665190D02*
X46019380Y-51665190D01*
X46162238Y-51760428D01*
X46257476Y-51855666D01*
X46305095Y-51950904D01*
X46019380Y-50474714D02*
X46019380Y-50950904D01*
X46495571Y-50998523D01*
X46447952Y-50950904D01*
X46400333Y-50855666D01*
X46400333Y-50617571D01*
X46447952Y-50522333D01*
X46495571Y-50474714D01*
X46590809Y-50427095D01*
X46828904Y-50427095D01*
X46924142Y-50474714D01*
X46971761Y-50522333D01*
X47019380Y-50617571D01*
X47019380Y-50855666D01*
X46971761Y-50950904D01*
X46924142Y-50998523D01*
%TO.C,Log1*%
G36*
X28362419Y-51955436D02*
G01*
X28373105Y-51960098D01*
X28430598Y-52004918D01*
X28446581Y-52076882D01*
X28440560Y-52123990D01*
X28415401Y-52163276D01*
X28360463Y-52205564D01*
X28265105Y-52261674D01*
X28264595Y-52261959D01*
X28139880Y-52326141D01*
X28050460Y-52357270D01*
X27986957Y-52357313D01*
X27941419Y-52329676D01*
X27909452Y-52262338D01*
X27921801Y-52184250D01*
X27974669Y-52116249D01*
X28040626Y-52070955D01*
X28129725Y-52017528D01*
X28170802Y-51994963D01*
X28254058Y-51955201D01*
X28310954Y-51943227D01*
X28362419Y-51955436D01*
G37*
G36*
X28885891Y-50755432D02*
G01*
X28924925Y-50789483D01*
X28947108Y-50857214D01*
X28956385Y-50967611D01*
X28957419Y-51045187D01*
X28956345Y-51159950D01*
X28950708Y-51231177D01*
X28936891Y-51272086D01*
X28911271Y-51295896D01*
X28885134Y-51309120D01*
X28831570Y-51333127D01*
X28800566Y-51335167D01*
X28762662Y-51312331D01*
X28737475Y-51294536D01*
X28703908Y-51264548D01*
X28684605Y-51223154D01*
X28675774Y-51155395D01*
X28673621Y-51046310D01*
X28673620Y-51042632D01*
X28680805Y-50903828D01*
X28704845Y-50812989D01*
X28749471Y-50762860D01*
X28818411Y-50746186D01*
X28826061Y-50746078D01*
X28885891Y-50755432D01*
G37*
G36*
X29392509Y-47573720D02*
G01*
X29565230Y-47485278D01*
X29762421Y-47385177D01*
X29978810Y-47276141D01*
X30070539Y-47230145D01*
X31100101Y-46714602D01*
X32939337Y-46120156D01*
X34290110Y-46122185D01*
X35640883Y-46124215D01*
X35044905Y-46275607D01*
X34824663Y-46334365D01*
X34571717Y-46406436D01*
X34306676Y-46485661D01*
X34050152Y-46565881D01*
X33824570Y-46640315D01*
X33200212Y-46853630D01*
X33909710Y-46854848D01*
X34619207Y-46856065D01*
X35094549Y-46977664D01*
X35249457Y-47018279D01*
X35383244Y-47055244D01*
X35487029Y-47085948D01*
X35551932Y-47107785D01*
X35569912Y-47117284D01*
X35546823Y-47137318D01*
X35483239Y-47180429D01*
X35387704Y-47241118D01*
X35268764Y-47313884D01*
X35208089Y-47350168D01*
X35090591Y-47418318D01*
X34979276Y-47478591D01*
X34864946Y-47535001D01*
X34738401Y-47591564D01*
X34590444Y-47652294D01*
X34411877Y-47721207D01*
X34193501Y-47802315D01*
X34062714Y-47850079D01*
X33279182Y-48135128D01*
X31678803Y-48131863D01*
X30078425Y-48128598D01*
X29570461Y-47947903D01*
X29411305Y-47890939D01*
X29271419Y-47840209D01*
X29159264Y-47798836D01*
X29083298Y-47769941D01*
X29051979Y-47756647D01*
X29051737Y-47756448D01*
X29073872Y-47741868D01*
X29141560Y-47704738D01*
X29152179Y-47699136D01*
X31001967Y-47699136D01*
X31025952Y-47701973D01*
X31100051Y-47704075D01*
X31217620Y-47705410D01*
X31372016Y-47705944D01*
X31556597Y-47705645D01*
X31764720Y-47704480D01*
X31881743Y-47703504D01*
X32774514Y-47695240D01*
X33186022Y-47504128D01*
X33597531Y-47313015D01*
X31949787Y-47312111D01*
X31482374Y-47499307D01*
X31330812Y-47560406D01*
X31198273Y-47614595D01*
X31093461Y-47658255D01*
X31025079Y-47687764D01*
X31001967Y-47699136D01*
X29152179Y-47699136D01*
X29249529Y-47647781D01*
X29392509Y-47573720D01*
G37*
G36*
X26079082Y-51088432D02*
G01*
X26203910Y-50713387D01*
X26259463Y-50587131D01*
X26455271Y-50232389D01*
X26691319Y-49917603D01*
X26967158Y-49643151D01*
X27282344Y-49409412D01*
X27636429Y-49216764D01*
X28028968Y-49065585D01*
X28069580Y-49052987D01*
X28168140Y-49024496D01*
X28255399Y-49004055D01*
X28344321Y-48990278D01*
X28447873Y-48981781D01*
X28579018Y-48977177D01*
X28750722Y-48975080D01*
X28801330Y-48974787D01*
X28989234Y-48974766D01*
X29133482Y-48977644D01*
X29247152Y-48984566D01*
X29343322Y-48996678D01*
X29435068Y-49015126D01*
X29525017Y-49038189D01*
X29911693Y-49171803D01*
X30268199Y-49353440D01*
X30595304Y-49583539D01*
X30793862Y-49760604D01*
X31057721Y-50051726D01*
X31270713Y-50362994D01*
X31435528Y-50699602D01*
X31554854Y-51066742D01*
X31612109Y-51340803D01*
X31648281Y-51725689D01*
X31629966Y-52109676D01*
X31559201Y-52486686D01*
X31438023Y-52850645D01*
X31268467Y-53195475D01*
X31052571Y-53515100D01*
X30792370Y-53803444D01*
X30784088Y-53811370D01*
X30467786Y-54075854D01*
X30128147Y-54288647D01*
X29764765Y-54449983D01*
X29539207Y-54521091D01*
X29342875Y-54560878D01*
X29110798Y-54586725D01*
X28861988Y-54598178D01*
X28615457Y-54594780D01*
X28390217Y-54576077D01*
X28247922Y-54552004D01*
X27856730Y-54438426D01*
X27493244Y-54278265D01*
X27161101Y-54073977D01*
X26863936Y-53828022D01*
X26605385Y-53542857D01*
X26466031Y-53347381D01*
X26267961Y-52991906D01*
X26122883Y-52622144D01*
X26031126Y-52242506D01*
X25993021Y-51857401D01*
X26000126Y-51684562D01*
X26125767Y-51684562D01*
X26136795Y-52051257D01*
X26197260Y-52412222D01*
X26306745Y-52762049D01*
X26464835Y-53095328D01*
X26671111Y-53406652D01*
X26841359Y-53605880D01*
X27123288Y-53871284D01*
X27422160Y-54086354D01*
X27745208Y-54255015D01*
X28099666Y-54381188D01*
X28402581Y-54452629D01*
X28570848Y-54473223D01*
X28773079Y-54480288D01*
X28988271Y-54474432D01*
X29195416Y-54456264D01*
X29373511Y-54426396D01*
X29383117Y-54424173D01*
X29754882Y-54314181D01*
X30088709Y-54166853D01*
X30393040Y-53977574D01*
X30676316Y-53741729D01*
X30734322Y-53685454D01*
X30982432Y-53399426D01*
X31186633Y-53081416D01*
X31344562Y-52738110D01*
X31453860Y-52376198D01*
X31512163Y-52002366D01*
X31517112Y-51623303D01*
X31506627Y-51498145D01*
X31437567Y-51115127D01*
X31317603Y-50752671D01*
X31150104Y-50414853D01*
X30938436Y-50105749D01*
X30685968Y-49829435D01*
X30396068Y-49589986D01*
X30072102Y-49391479D01*
X29717439Y-49237989D01*
X29609928Y-49202664D01*
X29388837Y-49141530D01*
X29191185Y-49103532D01*
X28992419Y-49085454D01*
X28767984Y-49084078D01*
X28716190Y-49085580D01*
X28337678Y-49125895D01*
X27971340Y-49218976D01*
X27622942Y-49361622D01*
X27298249Y-49550632D01*
X27003028Y-49782808D01*
X26743044Y-50054949D01*
X26584352Y-50268653D01*
X26393468Y-50604183D01*
X26253687Y-50955616D01*
X26164592Y-51317546D01*
X26125767Y-51684562D01*
X26000126Y-51684562D01*
X26008896Y-51471240D01*
X26079082Y-51088432D01*
G37*
G36*
X29376513Y-51951317D02*
G01*
X29451657Y-51985461D01*
X29538776Y-52031905D01*
X29622897Y-52082089D01*
X29689052Y-52127452D01*
X29722268Y-52159434D01*
X29723676Y-52164111D01*
X29732979Y-52210848D01*
X29739498Y-52230042D01*
X29733647Y-52282911D01*
X29689854Y-52331874D01*
X29625495Y-52360324D01*
X29601034Y-52362356D01*
X29546098Y-52347712D01*
X29461589Y-52310651D01*
X29366135Y-52259383D01*
X29273030Y-52201283D01*
X29221308Y-52157707D01*
X29201188Y-52118596D01*
X29200600Y-52089124D01*
X29229300Y-52000256D01*
X29285888Y-51947366D01*
X29328312Y-51938033D01*
X29376513Y-51951317D01*
G37*
G36*
X29942790Y-46233886D02*
G01*
X30097083Y-46280795D01*
X30231384Y-46322337D01*
X30336714Y-46355678D01*
X30404090Y-46377980D01*
X30424756Y-46386078D01*
X30401228Y-46398326D01*
X30330008Y-46429771D01*
X30216033Y-46478354D01*
X30064241Y-46542017D01*
X29879569Y-46618704D01*
X29666956Y-46706357D01*
X29431339Y-46802917D01*
X29177656Y-46906328D01*
X29121285Y-46929236D01*
X28863765Y-47033872D01*
X28622680Y-47131917D01*
X28403047Y-47221323D01*
X28209885Y-47300044D01*
X28048212Y-47366033D01*
X27923046Y-47417243D01*
X27839407Y-47451627D01*
X27802311Y-47467137D01*
X27800909Y-47467801D01*
X27824795Y-47477579D01*
X27895759Y-47502502D01*
X28006877Y-47540240D01*
X28151225Y-47588464D01*
X28321878Y-47644842D01*
X28510407Y-47706554D01*
X28723740Y-47776208D01*
X28939101Y-47846746D01*
X29144511Y-47914228D01*
X29327991Y-47974715D01*
X29477563Y-48024267D01*
X29553397Y-48049573D01*
X29879765Y-48159027D01*
X28758760Y-48159067D01*
X27637754Y-48159107D01*
X26609371Y-47799464D01*
X26380455Y-47719042D01*
X26169238Y-47644133D01*
X25981519Y-47576846D01*
X25823099Y-47519293D01*
X25699778Y-47473583D01*
X25617355Y-47441827D01*
X25581631Y-47426136D01*
X25580601Y-47425128D01*
X25606328Y-47412722D01*
X25679777Y-47383769D01*
X25795082Y-47340424D01*
X25946372Y-47284841D01*
X26127781Y-47219174D01*
X26333440Y-47145576D01*
X26557481Y-47066201D01*
X26580603Y-47058053D01*
X26817176Y-46974626D01*
X27045568Y-46893902D01*
X27258133Y-46818599D01*
X27447222Y-46751433D01*
X27605188Y-46695120D01*
X27724381Y-46652377D01*
X27793844Y-46627143D01*
X28006693Y-46548614D01*
X27124876Y-46547234D01*
X26243058Y-46545854D01*
X25336943Y-47328362D01*
X24430827Y-48110869D01*
X23331106Y-48115904D01*
X23087555Y-48116612D01*
X22862720Y-48116482D01*
X22662705Y-48115577D01*
X22493613Y-48113959D01*
X22361548Y-48111691D01*
X22272613Y-48108836D01*
X22232911Y-48105456D01*
X22231385Y-48104600D01*
X22244027Y-48084736D01*
X22283347Y-48050633D01*
X22351442Y-48000999D01*
X22450407Y-47934539D01*
X22582336Y-47849960D01*
X22749326Y-47745967D01*
X22953471Y-47621267D01*
X23196867Y-47474566D01*
X23481608Y-47304570D01*
X23809791Y-47109985D01*
X24183510Y-46889518D01*
X24508121Y-46698664D01*
X24629671Y-46626238D01*
X24731431Y-46563609D01*
X24804430Y-46516451D01*
X24839695Y-46490438D01*
X24841585Y-46487753D01*
X24820188Y-46466086D01*
X24761578Y-46419164D01*
X24675091Y-46354216D01*
X24585028Y-46289094D01*
X24327720Y-46105966D01*
X29470606Y-46091476D01*
X29942790Y-46233886D01*
G37*
G36*
X26546592Y-52537891D02*
G01*
X26486630Y-52349542D01*
X26448451Y-52137637D01*
X26430056Y-51894466D01*
X26431433Y-51641840D01*
X26452573Y-51401576D01*
X26487171Y-51219030D01*
X26606547Y-50859280D01*
X26770453Y-50532128D01*
X26975390Y-50240303D01*
X27217859Y-49986533D01*
X27494360Y-49773547D01*
X27801394Y-49604073D01*
X28135461Y-49480839D01*
X28493063Y-49406573D01*
X28840942Y-49383843D01*
X29200564Y-49411077D01*
X29544500Y-49490585D01*
X29868651Y-49619076D01*
X30168918Y-49793260D01*
X30441201Y-50009846D01*
X30681402Y-50265544D01*
X30885420Y-50557062D01*
X31049157Y-50881112D01*
X31168514Y-51234400D01*
X31174291Y-51256916D01*
X31196674Y-51389997D01*
X31209574Y-51561971D01*
X31213223Y-51755810D01*
X31207852Y-51954485D01*
X31193692Y-52140968D01*
X31170975Y-52298230D01*
X31159440Y-52349542D01*
X31041064Y-52698389D01*
X30875463Y-53020810D01*
X30666924Y-53312671D01*
X30419732Y-53569835D01*
X30138175Y-53788168D01*
X29826539Y-53963534D01*
X29489110Y-54091797D01*
X29305196Y-54138438D01*
X29111949Y-54166028D01*
X28886668Y-54177069D01*
X28651493Y-54171943D01*
X28428565Y-54151034D01*
X28262112Y-54120377D01*
X27974059Y-54027100D01*
X27687001Y-53891934D01*
X27414737Y-53723423D01*
X27171066Y-53530112D01*
X26969791Y-53320546D01*
X26969249Y-53319882D01*
X26855680Y-53160470D01*
X26741070Y-52964312D01*
X26707632Y-52896963D01*
X26863281Y-52896963D01*
X26879088Y-52922283D01*
X26939100Y-52924668D01*
X27045137Y-52909162D01*
X27155296Y-52888949D01*
X27300537Y-52861500D01*
X27400192Y-52840202D01*
X27464444Y-52820652D01*
X27503476Y-52798445D01*
X27527473Y-52769179D01*
X27546618Y-52728449D01*
X27551069Y-52717802D01*
X27614823Y-52624244D01*
X27706774Y-52579770D01*
X27825788Y-52584868D01*
X27846611Y-52590135D01*
X27963196Y-52614137D01*
X28064359Y-52611029D01*
X28172241Y-52577861D01*
X28265207Y-52534370D01*
X28351040Y-52491295D01*
X28413796Y-52460652D01*
X28439486Y-52449231D01*
X28441622Y-52476097D01*
X28443501Y-52551316D01*
X28445019Y-52666484D01*
X28446073Y-52813194D01*
X28446560Y-52983040D01*
X28446581Y-53027756D01*
X28446581Y-53606640D01*
X28553006Y-53599546D01*
X28659430Y-53592452D01*
X28667057Y-52950017D01*
X28669642Y-52743268D01*
X28672378Y-52585916D01*
X28676062Y-52470599D01*
X28681496Y-52389958D01*
X28689478Y-52336634D01*
X28700809Y-52303265D01*
X28716287Y-52282492D01*
X28736713Y-52266955D01*
X28741616Y-52263728D01*
X28804865Y-52235508D01*
X28868547Y-52247498D01*
X28882471Y-52253554D01*
X28956394Y-52287236D01*
X28964002Y-52941537D01*
X28971609Y-53595838D01*
X29075933Y-53601705D01*
X29158385Y-53595832D01*
X29196754Y-53564498D01*
X29197420Y-53562844D01*
X29202497Y-53520922D01*
X29205934Y-53432383D01*
X29207583Y-53307354D01*
X29207295Y-53155957D01*
X29205440Y-53015402D01*
X29203039Y-52850868D01*
X29202035Y-52705346D01*
X29202404Y-52588618D01*
X29204125Y-52510466D01*
X29206659Y-52481599D01*
X29236130Y-52475258D01*
X29304738Y-52498661D01*
X29363661Y-52527188D01*
X29446075Y-52565875D01*
X29523771Y-52589029D01*
X29612669Y-52598600D01*
X29728692Y-52596536D01*
X29856101Y-52587457D01*
X29963341Y-52596839D01*
X30044893Y-52639017D01*
X30088521Y-52706220D01*
X30092615Y-52737677D01*
X30116224Y-52788440D01*
X30156469Y-52816925D01*
X30216151Y-52834909D01*
X30309222Y-52855786D01*
X30421716Y-52877268D01*
X30539669Y-52897068D01*
X30649113Y-52912896D01*
X30736084Y-52922465D01*
X30786616Y-52923486D01*
X30793266Y-52921256D01*
X30782705Y-52894379D01*
X30741132Y-52834160D01*
X30675258Y-52749667D01*
X30596289Y-52655180D01*
X30503246Y-52548273D01*
X30437203Y-52477745D01*
X30388705Y-52436476D01*
X30348293Y-52417342D01*
X30306511Y-52413220D01*
X30277325Y-52414950D01*
X30156956Y-52402445D01*
X30068193Y-52342835D01*
X30011760Y-52236638D01*
X30007395Y-52221535D01*
X29945886Y-52087217D01*
X29841935Y-51960497D01*
X29709197Y-51857600D01*
X29693276Y-51848348D01*
X29652877Y-51826673D01*
X29624329Y-51809148D01*
X29612358Y-51791575D01*
X29621689Y-51769756D01*
X29657050Y-51739492D01*
X29723166Y-51696587D01*
X29824764Y-51636841D01*
X29966571Y-51556056D01*
X30120994Y-51468426D01*
X30262879Y-51387694D01*
X30386665Y-51317177D01*
X30484331Y-51261452D01*
X30547855Y-51225095D01*
X30569194Y-51212724D01*
X30568707Y-51183663D01*
X30543717Y-51130209D01*
X30506257Y-51071406D01*
X30468361Y-51026298D01*
X30443217Y-51013351D01*
X30409126Y-51031019D01*
X30333588Y-51072836D01*
X30224258Y-51134479D01*
X30088789Y-51211620D01*
X29934836Y-51299934D01*
X29870316Y-51337119D01*
X29332795Y-51647310D01*
X29260014Y-51586917D01*
X29207915Y-51527061D01*
X29201179Y-51462828D01*
X29202609Y-51455575D01*
X29216869Y-51425968D01*
X29251438Y-51390155D01*
X29312088Y-51344187D01*
X29404592Y-51284118D01*
X29534720Y-51206000D01*
X29708244Y-51105885D01*
X29742047Y-51086637D01*
X29899226Y-50997224D01*
X30040497Y-50916789D01*
X30158118Y-50849744D01*
X30244347Y-50800503D01*
X30291443Y-50773481D01*
X30296980Y-50770250D01*
X30305042Y-50734008D01*
X30271231Y-50660437D01*
X30264751Y-50649753D01*
X30201650Y-50547654D01*
X30069088Y-50623466D01*
X29993461Y-50667023D01*
X29883153Y-50730942D01*
X29752470Y-50806918D01*
X29615718Y-50886645D01*
X29603999Y-50893489D01*
X29453526Y-50981389D01*
X29345409Y-51043192D01*
X29272674Y-51080882D01*
X29228349Y-51096439D01*
X29205459Y-51091848D01*
X29197033Y-51069089D01*
X29196097Y-51030145D01*
X29196260Y-51009397D01*
X29184558Y-50834082D01*
X29145550Y-50695101D01*
X29074352Y-50576645D01*
X29055453Y-50553597D01*
X28976027Y-50434247D01*
X28951903Y-50326557D01*
X28983121Y-50230827D01*
X29009355Y-50197805D01*
X29069965Y-50133288D01*
X28970208Y-49850800D01*
X28927316Y-49729411D01*
X28890497Y-49625339D01*
X28864480Y-49551937D01*
X28855148Y-49525743D01*
X28832554Y-49505124D01*
X28799297Y-49539598D01*
X28755285Y-49629335D01*
X28700426Y-49774505D01*
X28668995Y-49867638D01*
X28578976Y-50142272D01*
X28640488Y-50208297D01*
X28694290Y-50299433D01*
X28692386Y-50398202D01*
X28634680Y-50505481D01*
X28603857Y-50542368D01*
X28516669Y-50654371D01*
X28467687Y-50764171D01*
X28448132Y-50895126D01*
X28446581Y-50960775D01*
X28444893Y-51045704D01*
X28440544Y-51101725D01*
X28436436Y-51115016D01*
X28409929Y-51101469D01*
X28341896Y-51063677D01*
X28239884Y-51005920D01*
X28111441Y-50932475D01*
X27964113Y-50847621D01*
X27935309Y-50830966D01*
X27785785Y-50744947D01*
X27654121Y-50670127D01*
X27547748Y-50610655D01*
X27474101Y-50570678D01*
X27440612Y-50554342D01*
X27439396Y-50554263D01*
X27421763Y-50580420D01*
X27387115Y-50631778D01*
X27352842Y-50692572D01*
X27339765Y-50734032D01*
X27363336Y-50756826D01*
X27429388Y-50803017D01*
X27530928Y-50868180D01*
X27660966Y-50947889D01*
X27812510Y-51037717D01*
X27894754Y-51085383D01*
X28073591Y-51188488D01*
X28209072Y-51267780D01*
X28307086Y-51327657D01*
X28373528Y-51372523D01*
X28414289Y-51406777D01*
X28435261Y-51434822D01*
X28442337Y-51461058D01*
X28441409Y-51489887D01*
X28441067Y-51493454D01*
X28419016Y-51566911D01*
X28362497Y-51606626D01*
X28357760Y-51608335D01*
X28328158Y-51614036D01*
X28290632Y-51609555D01*
X28238452Y-51591739D01*
X28164895Y-51557437D01*
X28063232Y-51503495D01*
X27926736Y-51426762D01*
X27748683Y-51324086D01*
X27738119Y-51317954D01*
X27579901Y-51226310D01*
X27438925Y-51145083D01*
X27322307Y-51078338D01*
X27237165Y-51030140D01*
X27190617Y-51004554D01*
X27184101Y-51001497D01*
X27165521Y-51023398D01*
X27130138Y-51078062D01*
X27117239Y-51099552D01*
X27059385Y-51197607D01*
X27554324Y-51485752D01*
X27704233Y-51573424D01*
X27835897Y-51651185D01*
X27941987Y-51714644D01*
X28015177Y-51759411D01*
X28048137Y-51781094D01*
X28049263Y-51782318D01*
X28027045Y-51800087D01*
X27970089Y-51836520D01*
X27922515Y-51865020D01*
X27789567Y-51964872D01*
X27690477Y-52084163D01*
X27636056Y-52209654D01*
X27634269Y-52217974D01*
X27588532Y-52321050D01*
X27506906Y-52388998D01*
X27402235Y-52412573D01*
X27368055Y-52409579D01*
X27322827Y-52404715D01*
X27284625Y-52411407D01*
X27243871Y-52436665D01*
X27190987Y-52487502D01*
X27116395Y-52570927D01*
X27062889Y-52632959D01*
X26957002Y-52757345D01*
X26889860Y-52843665D01*
X26863281Y-52896963D01*
X26707632Y-52896963D01*
X26634885Y-52750441D01*
X26546592Y-52537891D01*
G37*
G36*
X28896107Y-51637691D02*
G01*
X28896851Y-51638075D01*
X28960304Y-51682483D01*
X28983935Y-51740470D01*
X28985799Y-51776554D01*
X28972070Y-51853553D01*
X28920700Y-51906889D01*
X28903375Y-51917724D01*
X28842340Y-51952947D01*
X28805764Y-51960388D01*
X28767791Y-51937819D01*
X28725878Y-51902417D01*
X28667130Y-51824394D01*
X28663201Y-51742020D01*
X28713739Y-51664286D01*
X28735917Y-51645824D01*
X28788992Y-51611843D01*
X28832738Y-51609597D01*
X28896107Y-51637691D01*
G37*
D11*
%TO.C,U1*%
X47661000Y-35795000D02*
X41651000Y-35795000D01*
X41651000Y-35795000D02*
X41651000Y-34535000D01*
X45411000Y-28975000D02*
X41651000Y-28975000D01*
X41651000Y-28975000D02*
X41651000Y-30235000D01*
%TO.C,RV2*%
X96821000Y-48125000D02*
X96821000Y-47545000D01*
X96821000Y-52785000D02*
X96821000Y-52204000D01*
X102061000Y-52785000D02*
X96821000Y-52785000D01*
X102061000Y-52785000D02*
X102061000Y-51055000D01*
X102061000Y-47545000D02*
X96821000Y-47545000D01*
X102061000Y-49275000D02*
X102061000Y-47545000D01*
X96821000Y-50425000D02*
X96821000Y-49905000D01*
%TO.C,J5*%
X73938500Y-100642500D02*
X73938500Y-85759500D01*
X74318500Y-101022500D02*
X71318500Y-101022500D01*
X73938500Y-85759500D02*
X63698500Y-85759500D01*
X63698500Y-100642500D02*
X63698500Y-85759500D01*
X73938500Y-100642500D02*
X63698500Y-100642500D01*
X73938500Y-100642500D02*
X63698500Y-100642500D01*
X74318500Y-98022500D02*
X74318500Y-101022500D01*
X73938500Y-100642500D02*
X73938500Y-85759500D01*
X63698500Y-100642500D02*
X63698500Y-85759500D01*
X73938500Y-85759500D02*
X63698500Y-85759500D01*
%TO.C,R16*%
X49297000Y-47056064D02*
X49297000Y-45601936D01*
X47477000Y-47056064D02*
X47477000Y-45601936D01*
%TO.C,J4*%
X100908500Y-98022500D02*
X100908500Y-101022500D01*
X100528500Y-85759500D02*
X80288500Y-85759500D01*
X100528500Y-85759500D02*
X80288500Y-85759500D01*
X100528500Y-100642500D02*
X100528500Y-85759500D01*
X100528500Y-100642500D02*
X100528500Y-85759500D01*
X100908500Y-101022500D02*
X97908500Y-101022500D01*
X80288500Y-100642500D02*
X80288500Y-85759500D01*
X80288500Y-100642500D02*
X80288500Y-85759500D01*
X100528500Y-100642500D02*
X80288500Y-100642500D01*
X100528500Y-100642500D02*
X80288500Y-100642500D01*
%TO.C,R5*%
X92731000Y-40547936D02*
X92731000Y-42002064D01*
X90911000Y-40547936D02*
X90911000Y-42002064D01*
%TO.C,U4*%
X83576000Y-64135000D02*
X83576000Y-62185000D01*
X92446000Y-64135000D02*
X92446000Y-66085000D01*
X83576000Y-64135000D02*
X83576000Y-67585000D01*
X92446000Y-64135000D02*
X92446000Y-62185000D01*
%TO.C,TP2*%
X38936000Y-83746000D02*
X38936000Y-80846000D01*
X38936000Y-80846000D02*
X41836000Y-80846000D01*
X41836000Y-80846000D02*
X41836000Y-83746000D01*
X41836000Y-83746000D02*
X38936000Y-83746000D01*
%TO.C,R11*%
X78211000Y-62322064D02*
X78211000Y-60867936D01*
X80031000Y-62322064D02*
X80031000Y-60867936D01*
%TO.C,R10*%
X78211000Y-67402064D02*
X78211000Y-65947936D01*
X80031000Y-67402064D02*
X80031000Y-65947936D01*
%TO.C,C4*%
X24151000Y-80086252D02*
X24151000Y-78663748D01*
X22331000Y-80086252D02*
X22331000Y-78663748D01*
%TO.C,R13*%
X87283936Y-35835000D02*
X88738064Y-35835000D01*
X87283936Y-34015000D02*
X88738064Y-34015000D01*
%TO.C,C7*%
X52532000Y-43906500D02*
X52532000Y-47991500D01*
X52532000Y-47991500D02*
X54402000Y-47991500D01*
X54402000Y-47991500D02*
X54402000Y-43906500D01*
%TO.C,C5*%
X73681000Y-49606252D02*
X73681000Y-48183748D01*
X71861000Y-49606252D02*
X71861000Y-48183748D01*
%TO.C,R4*%
X87101000Y-42002064D02*
X87101000Y-40547936D01*
X88921000Y-42002064D02*
X88921000Y-40547936D01*
%TO.C,U2*%
X42691000Y-74935000D02*
X43951000Y-74935000D01*
X42691000Y-71175000D02*
X42691000Y-74935000D01*
X49511000Y-68925000D02*
X49511000Y-74935000D01*
X49511000Y-74935000D02*
X48251000Y-74935000D01*
%TO.C,U3*%
X34791000Y-89605000D02*
X34791000Y-79325000D01*
X34791000Y-79325000D02*
X33141000Y-79325000D01*
X29491000Y-89605000D02*
X34791000Y-89605000D01*
X31141000Y-79325000D02*
X29491000Y-79325000D01*
X29491000Y-79325000D02*
X29491000Y-89605000D01*
X31141000Y-79325000D02*
G75*
G03*
X33141000Y-79325000I1000000J0D01*
G01*
%TO.C,TP1*%
X43741000Y-89715000D02*
X40841000Y-89715000D01*
X40841000Y-86815000D02*
X43741000Y-86815000D01*
X43741000Y-86815000D02*
X43741000Y-89715000D01*
X40841000Y-89715000D02*
X40841000Y-86815000D01*
%TO.C,R8*%
X87101000Y-50892064D02*
X87101000Y-49437936D01*
X88921000Y-50892064D02*
X88921000Y-49437936D01*
%TO.C,R2*%
X87101000Y-81187936D02*
X87101000Y-82642064D01*
X88921000Y-81187936D02*
X88921000Y-82642064D01*
%TO.C,RV1*%
X102061000Y-43895000D02*
X96821000Y-43895000D01*
X96821000Y-39235000D02*
X96821000Y-38655000D01*
X96821000Y-43895000D02*
X96821000Y-43314000D01*
X96821000Y-41535000D02*
X96821000Y-41015000D01*
X102061000Y-38655000D02*
X96821000Y-38655000D01*
X102061000Y-43895000D02*
X102061000Y-42165000D01*
X102061000Y-40385000D02*
X102061000Y-38655000D01*
%TO.C,J6*%
X105468500Y-26217500D02*
X90585500Y-26217500D01*
X105468500Y-15977500D02*
X105468500Y-26217500D01*
X102848500Y-15597500D02*
X105848500Y-15597500D01*
X90585500Y-15977500D02*
X90585500Y-26217500D01*
X105468500Y-15977500D02*
X90585500Y-15977500D01*
X105468500Y-15977500D02*
X90585500Y-15977500D01*
X90585500Y-15977500D02*
X90585500Y-26217500D01*
X105848500Y-15597500D02*
X105848500Y-18597500D01*
X105468500Y-26217500D02*
X90585500Y-26217500D01*
X105468500Y-15977500D02*
X105468500Y-26217500D01*
%TO.C,D6*%
X91831000Y-55515000D02*
X87531000Y-55515000D01*
X91831000Y-57515000D02*
X91831000Y-55515000D01*
X87531000Y-57515000D02*
X91831000Y-57515000D01*
%TO.C,J3*%
X21023500Y-71652500D02*
X35906500Y-71652500D01*
X35906500Y-71652500D02*
X35906500Y-61412500D01*
X21023500Y-61412500D02*
X35906500Y-61412500D01*
X21023500Y-71652500D02*
X35906500Y-71652500D01*
X21023500Y-61412500D02*
X35906500Y-61412500D01*
X21023500Y-71652500D02*
X21023500Y-61412500D01*
X35906500Y-71652500D02*
X35906500Y-61412500D01*
X20643500Y-72032500D02*
X20643500Y-69032500D01*
X21023500Y-71652500D02*
X21023500Y-61412500D01*
X23643500Y-72032500D02*
X20643500Y-72032500D01*
%TO.C,R3*%
X94001000Y-81187936D02*
X94001000Y-82642064D01*
X92181000Y-81187936D02*
X92181000Y-82642064D01*
%TO.C,C1*%
X62461000Y-27640000D02*
X58376000Y-27640000D01*
X58376000Y-27640000D02*
X58376000Y-29510000D01*
X58376000Y-29510000D02*
X62461000Y-29510000D01*
%TO.C,J1*%
X23551000Y-26312500D02*
X20551000Y-26312500D01*
X20551000Y-26312500D02*
X20551000Y-23312500D01*
X20931000Y-25932500D02*
X20931000Y-15692500D01*
X20931000Y-25932500D02*
X35814000Y-25932500D01*
X35814000Y-25932500D02*
X35814000Y-15692500D01*
X20931000Y-15692500D02*
X35814000Y-15692500D01*
X20931000Y-25932500D02*
X35814000Y-25932500D01*
X35814000Y-25932500D02*
X35814000Y-15692500D01*
X20931000Y-15692500D02*
X35814000Y-15692500D01*
X20931000Y-25932500D02*
X20931000Y-15692500D01*
%TO.C,R6*%
X64862064Y-81513000D02*
X63407936Y-81513000D01*
X64862064Y-83333000D02*
X63407936Y-83333000D01*
%TO.C,C3*%
X97811000Y-64846252D02*
X97811000Y-63423748D01*
X95991000Y-64846252D02*
X95991000Y-63423748D01*
%TO.C,D1*%
X62611000Y-31385000D02*
X58311000Y-31385000D01*
X58311000Y-33385000D02*
X62611000Y-33385000D01*
X58311000Y-31385000D02*
X58311000Y-33385000D01*
%TO.C,R14*%
X73681000Y-65947936D02*
X73681000Y-67402064D01*
X71861000Y-65947936D02*
X71861000Y-67402064D01*
%TO.C,R9*%
X92731000Y-49437936D02*
X92731000Y-50892064D01*
X90911000Y-49437936D02*
X90911000Y-50892064D01*
%TO.C,Q1*%
X93091000Y-32675000D02*
X94766000Y-32675000D01*
X93091000Y-32675000D02*
X92441000Y-32675000D01*
X93091000Y-29555000D02*
X92441000Y-29555000D01*
X93091000Y-29555000D02*
X93741000Y-29555000D01*
%TO.C,C6*%
X51236000Y-33320000D02*
X55321000Y-33320000D01*
X51236000Y-31450000D02*
X51236000Y-33320000D01*
X55321000Y-31450000D02*
X51236000Y-31450000D01*
%TO.C,C2*%
X44037500Y-64724000D02*
X44037500Y-66594000D01*
X48122500Y-64724000D02*
X44037500Y-64724000D01*
X44037500Y-66594000D02*
X48122500Y-66594000D01*
%TO.C,D5*%
X71771000Y-71275000D02*
X71771000Y-75575000D01*
X73771000Y-75575000D02*
X73771000Y-71275000D01*
X71771000Y-75575000D02*
X73771000Y-75575000D01*
%TO.C,R17*%
X31403936Y-93705000D02*
X32858064Y-93705000D01*
X31403936Y-95525000D02*
X32858064Y-95525000D01*
%TO.C,J2*%
X35814000Y-40085000D02*
X35814000Y-29845000D01*
X20931000Y-29845000D02*
X35814000Y-29845000D01*
X35814000Y-40085000D02*
X35814000Y-29845000D01*
X23551000Y-40465000D02*
X20551000Y-40465000D01*
X20931000Y-29845000D02*
X35814000Y-29845000D01*
X20551000Y-40465000D02*
X20551000Y-37465000D01*
X20931000Y-40085000D02*
X35814000Y-40085000D01*
X20931000Y-40085000D02*
X20931000Y-29845000D01*
X20931000Y-40085000D02*
X35814000Y-40085000D01*
X20931000Y-40085000D02*
X20931000Y-29845000D01*
%TO.C,R1*%
X83841000Y-81187936D02*
X83841000Y-82642064D01*
X82021000Y-81187936D02*
X82021000Y-82642064D01*
%TO.C,D7*%
X54467000Y-50409000D02*
X52467000Y-50409000D01*
X52467000Y-50409000D02*
X52467000Y-54709000D01*
X54467000Y-54709000D02*
X54467000Y-50409000D01*
%TO.C,U5*%
X62591000Y-48895000D02*
X62591000Y-46945000D01*
X62591000Y-48895000D02*
X62591000Y-50845000D01*
X67711000Y-48895000D02*
X67711000Y-50845000D01*
X67711000Y-48895000D02*
X67711000Y-45445000D01*
%TO.C,TP3*%
X24691000Y-86815000D02*
X24691000Y-89715000D01*
X24691000Y-89715000D02*
X21791000Y-89715000D01*
X21791000Y-86815000D02*
X24691000Y-86815000D01*
X21791000Y-89715000D02*
X21791000Y-86815000D01*
%TO.C,F1*%
X39821000Y-25865000D02*
X62541000Y-25865000D01*
X62541000Y-25865000D02*
X62541000Y-22705000D01*
X62541000Y-19205000D02*
X62541000Y-16045000D01*
X39821000Y-25865000D02*
X39821000Y-22705000D01*
X39821000Y-16045000D02*
X62541000Y-16045000D01*
X39821000Y-19205000D02*
X39821000Y-16045000D01*
%TO.C,D2*%
X83931000Y-75575000D02*
X83931000Y-71275000D01*
X81931000Y-75575000D02*
X83931000Y-75575000D01*
X81931000Y-71275000D02*
X81931000Y-75575000D01*
%TO.C,D3*%
X92091000Y-71275000D02*
X92091000Y-75575000D01*
X92091000Y-75575000D02*
X94091000Y-75575000D01*
X94091000Y-75575000D02*
X94091000Y-71275000D01*
%TO.C,D4*%
X89011000Y-31115000D02*
X89011000Y-26815000D01*
X89011000Y-26815000D02*
X87011000Y-26815000D01*
X87011000Y-26815000D02*
X87011000Y-31115000D01*
%TO.C,R12*%
X64791000Y-73752064D02*
X64791000Y-72297936D01*
X62971000Y-73752064D02*
X62971000Y-72297936D01*
%TO.C,J7*%
X57428500Y-100642500D02*
X57428500Y-85759500D01*
X57428500Y-100642500D02*
X47188500Y-100642500D01*
X57808500Y-101022500D02*
X54808500Y-101022500D01*
X57428500Y-100642500D02*
X47188500Y-100642500D01*
X57808500Y-98022500D02*
X57808500Y-101022500D01*
X57428500Y-85759500D02*
X47188500Y-85759500D01*
X57428500Y-85759500D02*
X47188500Y-85759500D01*
X57428500Y-100642500D02*
X57428500Y-85759500D01*
X47188500Y-100642500D02*
X47188500Y-85759500D01*
X47188500Y-100642500D02*
X47188500Y-85759500D01*
%TO.C,K1*%
X84861000Y-31195000D02*
X65661000Y-31195000D01*
X74861000Y-21995000D02*
X79861000Y-24995000D01*
X79861000Y-21995000D02*
X79861000Y-24995000D01*
X80761000Y-23495000D02*
X81661000Y-23495000D01*
X74861000Y-21995000D02*
X79861000Y-21995000D01*
X84861000Y-22295000D02*
X84861000Y-15795000D01*
X74861000Y-24995000D02*
X74861000Y-21995000D01*
X73861000Y-23495000D02*
X72361000Y-23495000D01*
X77361000Y-29495000D02*
X79661000Y-29495000D01*
X77361000Y-21995000D02*
X77361000Y-17495000D01*
X79861000Y-24995000D02*
X74861000Y-24995000D01*
X73861000Y-23495000D02*
X73861000Y-19795000D01*
X79661000Y-17495000D02*
X77361000Y-17495000D01*
X65661000Y-31195000D02*
X65661000Y-15795000D01*
X65661000Y-15795000D02*
X84861000Y-15795000D01*
X73861000Y-19795000D02*
X80761000Y-19795000D01*
X84861000Y-31195000D02*
X84861000Y-24695000D01*
X77361000Y-29495000D02*
X77361000Y-24995000D01*
X80761000Y-23495000D02*
X80761000Y-19795000D01*
X69161000Y-19195000D02*
X69161000Y-21495000D01*
X69161000Y-27795000D02*
X69161000Y-25495000D01*
X72361000Y-23495000D02*
X67861000Y-26195000D01*
%TO.C,R7*%
X41563936Y-93705000D02*
X43018064Y-93705000D01*
X41563936Y-95525000D02*
X43018064Y-95525000D01*
%TO.C,R15*%
X47477000Y-52416064D02*
X47477000Y-50961936D01*
X49297000Y-52416064D02*
X49297000Y-50961936D01*
%TD*%
%LPC*%
D12*
%TO.C,U1*%
X46711000Y-34685000D03*
X46711000Y-32385000D03*
X46711000Y-30085000D03*
D13*
X40411000Y-32385000D03*
%TD*%
D14*
%TO.C,RV2*%
X96691000Y-51315000D03*
D15*
X102191000Y-50165000D03*
D14*
X96691000Y-49015000D03*
%TD*%
D16*
%TO.C,J5*%
X71318500Y-89522500D03*
X71318500Y-94522500D03*
D17*
X66318500Y-94522500D03*
X66318500Y-89522500D03*
%TD*%
D18*
%TO.C,R16*%
X48387000Y-47879000D03*
X48387000Y-44779000D03*
%TD*%
D16*
%TO.C,J4*%
X97908500Y-89522500D03*
X97908500Y-94522500D03*
D17*
X92908500Y-89522500D03*
X92908500Y-94522500D03*
X87908500Y-94522500D03*
X87908500Y-89522500D03*
X82908500Y-89522500D03*
X82908500Y-94522500D03*
%TD*%
D19*
%TO.C,R5*%
X91821000Y-39725000D03*
X91821000Y-42825000D03*
%TD*%
D20*
%TO.C,U4*%
X84201000Y-66610000D03*
X85471000Y-66610000D03*
X86741000Y-66610000D03*
X88011000Y-66610000D03*
X89281000Y-66610000D03*
X90551000Y-66610000D03*
X91821000Y-66610000D03*
X91821000Y-61660000D03*
X90551000Y-61660000D03*
X89281000Y-61660000D03*
X88011000Y-61660000D03*
X86741000Y-61660000D03*
X85471000Y-61660000D03*
X84201000Y-61660000D03*
%TD*%
D21*
%TO.C,TP2*%
X40386000Y-82296000D03*
%TD*%
D18*
%TO.C,R11*%
X79121000Y-63145000D03*
X79121000Y-60045000D03*
%TD*%
%TO.C,R10*%
X79121000Y-68225000D03*
X79121000Y-65125000D03*
%TD*%
D22*
%TO.C,C4*%
X23241000Y-80937500D03*
X23241000Y-77812500D03*
%TD*%
D23*
%TO.C,R13*%
X86461000Y-34925000D03*
X89561000Y-34925000D03*
%TD*%
D24*
%TO.C,C7*%
X53467000Y-46944000D03*
X53467000Y-44069000D03*
%TD*%
D22*
%TO.C,C5*%
X72771000Y-50457500D03*
X72771000Y-47332500D03*
%TD*%
D18*
%TO.C,R4*%
X88011000Y-42825000D03*
X88011000Y-39725000D03*
%TD*%
D25*
%TO.C,U2*%
X48401000Y-69875000D03*
X46101000Y-69875000D03*
X43801000Y-69875000D03*
D26*
X46101000Y-76175000D03*
%TD*%
D27*
%TO.C,U3*%
X28331000Y-80655000D03*
D28*
X28331000Y-83195000D03*
X28331000Y-85735000D03*
X28331000Y-88275000D03*
X35951000Y-88275000D03*
X35951000Y-85735000D03*
X35951000Y-83195000D03*
X35951000Y-80655000D03*
%TD*%
D21*
%TO.C,TP1*%
X42291000Y-88265000D03*
%TD*%
D18*
%TO.C,R8*%
X88011000Y-51715000D03*
X88011000Y-48615000D03*
%TD*%
D19*
%TO.C,R2*%
X88011000Y-80365000D03*
X88011000Y-83465000D03*
%TD*%
D14*
%TO.C,RV1*%
X96691000Y-42425000D03*
D15*
X102191000Y-41275000D03*
D14*
X96691000Y-40125000D03*
%TD*%
D16*
%TO.C,J6*%
X99348500Y-18597500D03*
X94348500Y-18597500D03*
D17*
X94348500Y-23597500D03*
X99348500Y-23597500D03*
%TD*%
D29*
%TO.C,D6*%
X91031000Y-56515000D03*
X87531000Y-56515000D03*
%TD*%
D16*
%TO.C,J3*%
X27143500Y-69032500D03*
X32143500Y-69032500D03*
D17*
X27143500Y-64032500D03*
X32143500Y-64032500D03*
%TD*%
D19*
%TO.C,R3*%
X93091000Y-80365000D03*
X93091000Y-83465000D03*
%TD*%
D30*
%TO.C,C1*%
X59423500Y-28575000D03*
X62298500Y-28575000D03*
%TD*%
D16*
%TO.C,J1*%
X32051000Y-23312500D03*
X27051000Y-23312500D03*
D17*
X27051000Y-18312500D03*
X32051000Y-18312500D03*
%TD*%
D31*
%TO.C,R6*%
X65685000Y-82423000D03*
X62585000Y-82423000D03*
%TD*%
D22*
%TO.C,C3*%
X96901000Y-65697500D03*
X96901000Y-62572500D03*
%TD*%
D29*
%TO.C,D1*%
X59111000Y-32385000D03*
X62611000Y-32385000D03*
%TD*%
D19*
%TO.C,R14*%
X72771000Y-65125000D03*
X72771000Y-68225000D03*
%TD*%
%TO.C,R9*%
X91821000Y-48615000D03*
X91821000Y-51715000D03*
%TD*%
D32*
%TO.C,Q1*%
X94028500Y-32065000D03*
X94028500Y-30165000D03*
X92153500Y-31115000D03*
%TD*%
D30*
%TO.C,C6*%
X52283500Y-32385000D03*
X55158500Y-32385000D03*
%TD*%
%TO.C,C2*%
X45085000Y-65659000D03*
X47960000Y-65659000D03*
%TD*%
D33*
%TO.C,D5*%
X72771000Y-74775000D03*
X72771000Y-71275000D03*
%TD*%
D23*
%TO.C,R17*%
X30581000Y-94615000D03*
X33681000Y-94615000D03*
%TD*%
D16*
%TO.C,J2*%
X32051000Y-37465000D03*
X27051000Y-37465000D03*
D17*
X32051000Y-32465000D03*
X27051000Y-32465000D03*
%TD*%
D19*
%TO.C,R1*%
X82931000Y-80365000D03*
X82931000Y-83465000D03*
%TD*%
D33*
%TO.C,D7*%
X53467000Y-51209000D03*
X53467000Y-54709000D03*
%TD*%
D34*
%TO.C,U5*%
X67056000Y-46420000D03*
X65786000Y-46420000D03*
X64516000Y-46420000D03*
X63246000Y-46420000D03*
X63246000Y-51370000D03*
X64516000Y-51370000D03*
X65786000Y-51370000D03*
X67056000Y-51370000D03*
%TD*%
D21*
%TO.C,TP3*%
X23241000Y-88265000D03*
%TD*%
D35*
%TO.C,F1*%
X51181000Y-20955000D03*
D17*
X39931000Y-20955000D03*
X62431000Y-20955000D03*
%TD*%
D33*
%TO.C,D2*%
X82931000Y-74775000D03*
X82931000Y-71275000D03*
%TD*%
%TO.C,D3*%
X93091000Y-74775000D03*
X93091000Y-71275000D03*
%TD*%
%TO.C,D4*%
X88011000Y-27615000D03*
X88011000Y-31115000D03*
%TD*%
D18*
%TO.C,R12*%
X63881000Y-74575000D03*
X63881000Y-71475000D03*
%TD*%
D16*
%TO.C,J7*%
X54808500Y-89522500D03*
X54808500Y-94522500D03*
D17*
X49808500Y-94522500D03*
X49808500Y-89522500D03*
%TD*%
%TO.C,K1*%
X83361000Y-23495000D03*
X69161000Y-29495000D03*
X69161000Y-17495000D03*
X81361000Y-17495000D03*
X81361000Y-29495000D03*
%TD*%
D23*
%TO.C,R7*%
X40741000Y-94615000D03*
X43841000Y-94615000D03*
%TD*%
D18*
%TO.C,R15*%
X48387000Y-53239000D03*
X48387000Y-50139000D03*
%TD*%
M02*
