M48
; DRILL file {KiCad (6.0.4)} date Sat Jul  9 00:08:49 2022
; FORMAT={-:-/ absolute / metric / decimal}
; #@! TF.CreationDate,2022-07-09T00:08:49+02:00
; #@! TF.GenerationSoftware,Kicad,Pcbnew,(6.0.4)
; #@! TF.FileFunction,Plated,1,2,PTH
FMAT,2
METRIC
; #@! TA.AperFunction,Plated,PTH,ViaDrill
T1C0.400
; #@! TA.AperFunction,Plated,PTH,ComponentDrill
T2C0.800
; #@! TA.AperFunction,Plated,PTH,ComponentDrill
T3C1.300
; #@! TA.AperFunction,Plated,PTH,ComponentDrill
T4C1.500
%
G90
G05
T1
X23.241Y-76.073
X28.575Y-94.615
X48.387Y-67.691
X48.895Y-34.925
X51.943Y-42.545
X53.467Y-36.449
X56.769Y-32.385
X60.183Y-46.497
X62.611Y-30.861
X63.881Y-69.215
X63.881Y-76.835
X67.422Y-53.736
X69.977Y-46.863
X72.771Y-76.835
X75.819Y-65.151
X75.819Y-68.199
X79.121Y-58.547
X82.931Y-76.835
X82.931Y-78.867
X84.455Y-69.215
X88.011Y-59.563
X88.011Y-70.993
X88.011Y-78.867
X88.519Y-63.627
X93.091Y-76.835
X93.091Y-78.867
X95.631Y-70.993
X96.393Y-30.353
X96.901Y-60.833
X104.013Y-41.275
X104.013Y-50.165
T2
X28.331Y-80.655
X28.331Y-83.195
X28.331Y-85.735
X28.331Y-88.275
X35.951Y-80.655
X35.951Y-83.195
X35.951Y-85.735
X35.951Y-88.275
T3
X39.931Y-20.955
X62.431Y-20.955
X69.161Y-17.495
X69.161Y-29.495
X81.361Y-17.495
X81.361Y-29.495
X83.361Y-23.495
T4
X27.051Y-18.312
X27.051Y-23.312
X27.051Y-32.465
X27.051Y-37.465
X27.143Y-64.032
X27.143Y-69.032
X32.051Y-18.312
X32.051Y-23.312
X32.051Y-32.465
X32.051Y-37.465
X32.143Y-64.032
X32.143Y-69.032
X49.808Y-89.522
X49.808Y-94.522
X54.808Y-89.522
X54.808Y-94.522
X66.319Y-89.522
X66.319Y-94.522
X71.319Y-89.522
X71.319Y-94.522
X82.908Y-89.522
X82.908Y-94.522
X87.908Y-89.522
X87.908Y-94.522
X92.908Y-89.522
X92.908Y-94.522
X94.349Y-18.598
X94.349Y-23.598
X97.908Y-89.522
X97.908Y-94.522
X99.349Y-18.598
X99.349Y-23.598
T0
M30
