%TF.GenerationSoftware,KiCad,Pcbnew,(6.0.4)*%
%TF.CreationDate,2022-07-09T00:06:40+02:00*%
%TF.ProjectId,BSPDandIndication,42535044-616e-4644-996e-646963617469,1.0*%
%TF.SameCoordinates,Original*%
%TF.FileFunction,Copper,L1,Top*%
%TF.FilePolarity,Positive*%
%FSLAX46Y46*%
G04 Gerber Fmt 4.6, Leading zero omitted, Abs format (unit mm)*
G04 Created by KiCad (PCBNEW (6.0.4)) date 2022-07-09 00:06:40*
%MOMM*%
%LPD*%
G01*
G04 APERTURE LIST*
G04 Aperture macros list*
%AMRoundRect*
0 Rectangle with rounded corners*
0 $1 Rounding radius*
0 $2 $3 $4 $5 $6 $7 $8 $9 X,Y pos of 4 corners*
0 Add a 4 corners polygon primitive as box body*
4,1,4,$2,$3,$4,$5,$6,$7,$8,$9,$2,$3,0*
0 Add four circle primitives for the rounded corners*
1,1,$1+$1,$2,$3*
1,1,$1+$1,$4,$5*
1,1,$1+$1,$6,$7*
1,1,$1+$1,$8,$9*
0 Add four rect primitives between the rounded corners*
20,1,$1+$1,$2,$3,$4,$5,0*
20,1,$1+$1,$4,$5,$6,$7,0*
20,1,$1+$1,$6,$7,$8,$9,0*
20,1,$1+$1,$8,$9,$2,$3,0*%
G04 Aperture macros list end*
%TA.AperFunction,SMDPad,CuDef*%
%ADD10R,2.000000X1.500000*%
%TD*%
%TA.AperFunction,SMDPad,CuDef*%
%ADD11R,2.000000X3.800000*%
%TD*%
%TA.AperFunction,SMDPad,CuDef*%
%ADD12R,1.300000X1.300000*%
%TD*%
%TA.AperFunction,SMDPad,CuDef*%
%ADD13R,2.000000X1.300000*%
%TD*%
%TA.AperFunction,ComponentPad*%
%ADD14R,3.000000X3.000000*%
%TD*%
%TA.AperFunction,ComponentPad*%
%ADD15C,3.000000*%
%TD*%
%TA.AperFunction,SMDPad,CuDef*%
%ADD16RoundRect,0.250000X0.625000X-0.400000X0.625000X0.400000X-0.625000X0.400000X-0.625000X-0.400000X0*%
%TD*%
%TA.AperFunction,SMDPad,CuDef*%
%ADD17RoundRect,0.250000X-0.625000X0.400000X-0.625000X-0.400000X0.625000X-0.400000X0.625000X0.400000X0*%
%TD*%
%TA.AperFunction,SMDPad,CuDef*%
%ADD18RoundRect,0.150000X0.150000X-0.825000X0.150000X0.825000X-0.150000X0.825000X-0.150000X-0.825000X0*%
%TD*%
%TA.AperFunction,SMDPad,CuDef*%
%ADD19R,2.500000X2.500000*%
%TD*%
%TA.AperFunction,SMDPad,CuDef*%
%ADD20RoundRect,0.250000X0.650000X-0.412500X0.650000X0.412500X-0.650000X0.412500X-0.650000X-0.412500X0*%
%TD*%
%TA.AperFunction,SMDPad,CuDef*%
%ADD21RoundRect,0.250000X-0.400000X-0.625000X0.400000X-0.625000X0.400000X0.625000X-0.400000X0.625000X0*%
%TD*%
%TA.AperFunction,SMDPad,CuDef*%
%ADD22RoundRect,0.250000X0.425000X-0.537500X0.425000X0.537500X-0.425000X0.537500X-0.425000X-0.537500X0*%
%TD*%
%TA.AperFunction,SMDPad,CuDef*%
%ADD23R,1.500000X2.000000*%
%TD*%
%TA.AperFunction,SMDPad,CuDef*%
%ADD24R,3.800000X2.000000*%
%TD*%
%TA.AperFunction,ComponentPad*%
%ADD25R,1.600000X1.600000*%
%TD*%
%TA.AperFunction,ComponentPad*%
%ADD26O,1.600000X1.600000*%
%TD*%
%TA.AperFunction,SMDPad,CuDef*%
%ADD27R,1.300000X1.700000*%
%TD*%
%TA.AperFunction,SMDPad,CuDef*%
%ADD28RoundRect,0.250000X-0.537500X-0.425000X0.537500X-0.425000X0.537500X0.425000X-0.537500X0.425000X0*%
%TD*%
%TA.AperFunction,SMDPad,CuDef*%
%ADD29RoundRect,0.250000X0.400000X0.625000X-0.400000X0.625000X-0.400000X-0.625000X0.400000X-0.625000X0*%
%TD*%
%TA.AperFunction,SMDPad,CuDef*%
%ADD30RoundRect,0.150000X0.587500X0.150000X-0.587500X0.150000X-0.587500X-0.150000X0.587500X-0.150000X0*%
%TD*%
%TA.AperFunction,SMDPad,CuDef*%
%ADD31R,1.700000X1.300000*%
%TD*%
%TA.AperFunction,SMDPad,CuDef*%
%ADD32RoundRect,0.150000X-0.150000X0.825000X-0.150000X-0.825000X0.150000X-0.825000X0.150000X0.825000X0*%
%TD*%
%TA.AperFunction,ViaPad*%
%ADD33C,0.800000*%
%TD*%
%TA.AperFunction,Conductor*%
%ADD34C,1.000000*%
%TD*%
%TA.AperFunction,Conductor*%
%ADD35C,0.600000*%
%TD*%
%TA.AperFunction,Conductor*%
%ADD36C,2.500000*%
%TD*%
G04 APERTURE END LIST*
D10*
%TO.P,U1,1,GND*%
%TO.N,GND*%
X46711000Y-34685000D03*
%TO.P,U1,2,VO*%
%TO.N,+5V*%
X46711000Y-32385000D03*
%TO.P,U1,3,VI*%
%TO.N,+12V*%
X46711000Y-30085000D03*
D11*
%TO.P,U1,4*%
%TO.N,N/C*%
X40411000Y-32385000D03*
%TD*%
D12*
%TO.P,RV2,1,1*%
%TO.N,Net-(R9-Pad2)*%
X96691000Y-51315000D03*
D13*
%TO.P,RV2,2,2*%
%TO.N,GND*%
X102191000Y-50165000D03*
D12*
%TO.P,RV2,3,3*%
X96691000Y-49015000D03*
%TD*%
D14*
%TO.P,J5,1,Pin_1*%
%TO.N,LED*%
X71318500Y-89522500D03*
X71318500Y-94522500D03*
D15*
%TO.P,J5,2,Pin_2*%
%TO.N,GND*%
X66318500Y-94522500D03*
X66318500Y-89522500D03*
%TD*%
D16*
%TO.P,R16,1*%
%TO.N,Net-(R15-Pad2)*%
X48387000Y-47879000D03*
%TO.P,R16,2*%
%TO.N,Net-(C7-Pad1)*%
X48387000Y-44779000D03*
%TD*%
D14*
%TO.P,J4,1,Pin_1*%
%TO.N,GND*%
X97908500Y-89522500D03*
X97908500Y-94522500D03*
D15*
%TO.P,J4,2,Pin_2*%
%TO.N,Brake2*%
X92908500Y-89522500D03*
X92908500Y-94522500D03*
%TO.P,J4,3,Pin_3*%
%TO.N,Brake1*%
X87908500Y-94522500D03*
X87908500Y-89522500D03*
%TO.P,J4,4,Pin_4*%
%TO.N,TPS*%
X82908500Y-89522500D03*
X82908500Y-94522500D03*
%TD*%
D17*
%TO.P,R5,1*%
%TO.N,Brake_ref*%
X91821000Y-39725000D03*
%TO.P,R5,2*%
%TO.N,Net-(R5-Pad2)*%
X91821000Y-42825000D03*
%TD*%
D18*
%TO.P,U4,1*%
%TO.N,Net-(D2-Pad2)*%
X84201000Y-66610000D03*
%TO.P,U4,2,-*%
%TO.N,Brake_ref*%
X85471000Y-66610000D03*
%TO.P,U4,3,+*%
%TO.N,Brake1*%
X86741000Y-66610000D03*
%TO.P,U4,4,V+*%
%TO.N,+5V*%
X88011000Y-66610000D03*
%TO.P,U4,5,+*%
%TO.N,Brake2*%
X89281000Y-66610000D03*
%TO.P,U4,6,-*%
%TO.N,Brake_ref*%
X90551000Y-66610000D03*
%TO.P,U4,7*%
%TO.N,Net-(D3-Pad2)*%
X91821000Y-66610000D03*
%TO.P,U4,8*%
%TO.N,Net-(D6-Pad1)*%
X91821000Y-61660000D03*
%TO.P,U4,9,-*%
%TO.N,TPS_ref*%
X90551000Y-61660000D03*
%TO.P,U4,10,+*%
%TO.N,TPS*%
X89281000Y-61660000D03*
%TO.P,U4,11,V-*%
%TO.N,GND*%
X88011000Y-61660000D03*
%TO.P,U4,12,+*%
%TO.N,Net-(R10-Pad2)*%
X86741000Y-61660000D03*
%TO.P,U4,13,-*%
%TO.N,Net-(U4-Pad13)*%
X85471000Y-61660000D03*
%TO.P,U4,14*%
X84201000Y-61660000D03*
%TD*%
D19*
%TO.P,TP2,1,1*%
%TO.N,Net-(R6-Pad2)*%
X40386000Y-82296000D03*
%TD*%
D16*
%TO.P,R11,1*%
%TO.N,Net-(R10-Pad2)*%
X79121000Y-63145000D03*
%TO.P,R11,2*%
%TO.N,GND*%
X79121000Y-60045000D03*
%TD*%
%TO.P,R10,1*%
%TO.N,+5V*%
X79121000Y-68225000D03*
%TO.P,R10,2*%
%TO.N,Net-(R10-Pad2)*%
X79121000Y-65125000D03*
%TD*%
D20*
%TO.P,C4,1*%
%TO.N,Net-(C4-Pad1)*%
X23241000Y-80937500D03*
%TO.P,C4,2*%
%TO.N,GND*%
X23241000Y-77812500D03*
%TD*%
D21*
%TO.P,R13,1*%
%TO.N,RELAY*%
X86461000Y-34925000D03*
%TO.P,R13,2*%
%TO.N,Net-(Q1-Pad1)*%
X89561000Y-34925000D03*
%TD*%
D22*
%TO.P,C7,1*%
%TO.N,Net-(C7-Pad1)*%
X53467000Y-46944000D03*
%TO.P,C7,2*%
%TO.N,GND*%
X53467000Y-44069000D03*
%TD*%
D20*
%TO.P,C5,1*%
%TO.N,+5V*%
X72771000Y-50457500D03*
%TO.P,C5,2*%
%TO.N,GND*%
X72771000Y-47332500D03*
%TD*%
D16*
%TO.P,R4,1*%
%TO.N,+5V*%
X88011000Y-42825000D03*
%TO.P,R4,2*%
%TO.N,Brake_ref*%
X88011000Y-39725000D03*
%TD*%
D23*
%TO.P,U2,1,GND*%
%TO.N,GND*%
X48401000Y-69875000D03*
%TO.P,U2,2,VO*%
%TO.N,Net-(C4-Pad1)*%
X46101000Y-69875000D03*
%TO.P,U2,3,VI*%
%TO.N,12V_Telem*%
X43801000Y-69875000D03*
D24*
%TO.P,U2,4*%
%TO.N,N/C*%
X46101000Y-76175000D03*
%TD*%
D25*
%TO.P,U3,1,VDD*%
%TO.N,Net-(C4-Pad1)*%
X28331000Y-80655000D03*
D26*
%TO.P,U3,2,GP5*%
%TO.N,unconnected-(U3-Pad2)*%
X28331000Y-83195000D03*
%TO.P,U3,3,GP4*%
%TO.N,unconnected-(U3-Pad3)*%
X28331000Y-85735000D03*
%TO.P,U3,4,GP3*%
%TO.N,Net-(TP3-Pad1)*%
X28331000Y-88275000D03*
%TO.P,U3,5,GP2*%
%TO.N,Net-(R17-Pad2)*%
X35951000Y-88275000D03*
%TO.P,U3,6,GP1*%
%TO.N,Net-(TP1-Pad1)*%
X35951000Y-85735000D03*
%TO.P,U3,7,GP0*%
%TO.N,Net-(R6-Pad2)*%
X35951000Y-83195000D03*
%TO.P,U3,8,VSS*%
%TO.N,GND*%
X35951000Y-80655000D03*
%TD*%
D19*
%TO.P,TP1,1,1*%
%TO.N,Net-(TP1-Pad1)*%
X42291000Y-88265000D03*
%TD*%
D16*
%TO.P,R8,1*%
%TO.N,+5V*%
X88011000Y-51715000D03*
%TO.P,R8,2*%
%TO.N,TPS_ref*%
X88011000Y-48615000D03*
%TD*%
D17*
%TO.P,R2,1*%
%TO.N,+5V*%
X88011000Y-80365000D03*
%TO.P,R2,2*%
%TO.N,Brake1*%
X88011000Y-83465000D03*
%TD*%
D12*
%TO.P,RV1,1,1*%
%TO.N,Net-(R5-Pad2)*%
X96691000Y-42425000D03*
D13*
%TO.P,RV1,2,2*%
%TO.N,GND*%
X102191000Y-41275000D03*
D12*
%TO.P,RV1,3,3*%
X96691000Y-40125000D03*
%TD*%
D14*
%TO.P,J6,1,Pin_1*%
%TO.N,Net-(K1-Pad11)*%
X99348500Y-18597500D03*
X94348500Y-18597500D03*
D15*
%TO.P,J6,2,Pin_2*%
X94348500Y-23597500D03*
X99348500Y-23597500D03*
%TD*%
D27*
%TO.P,D6,1,K*%
%TO.N,Net-(D6-Pad1)*%
X91031000Y-56515000D03*
%TO.P,D6,2,A*%
%TO.N,/(A+B)C*%
X87531000Y-56515000D03*
%TD*%
D14*
%TO.P,J3,1,Pin_1*%
%TO.N,12V_Telem*%
X27143500Y-69032500D03*
X32143500Y-69032500D03*
D15*
%TO.P,J3,2,Pin_2*%
X27143500Y-64032500D03*
X32143500Y-64032500D03*
%TD*%
D17*
%TO.P,R3,1*%
%TO.N,+5V*%
X93091000Y-80365000D03*
%TO.P,R3,2*%
%TO.N,Brake2*%
X93091000Y-83465000D03*
%TD*%
D28*
%TO.P,C1,1*%
%TO.N,+12V*%
X59423500Y-28575000D03*
%TO.P,C1,2*%
%TO.N,GND*%
X62298500Y-28575000D03*
%TD*%
D14*
%TO.P,J1,1,Pin_1*%
%TO.N,+12C*%
X32051000Y-23312500D03*
X27051000Y-23312500D03*
D15*
%TO.P,J1,2,Pin_2*%
X27051000Y-18312500D03*
X32051000Y-18312500D03*
%TD*%
D29*
%TO.P,R6,1*%
%TO.N,LED*%
X65685000Y-82423000D03*
%TO.P,R6,2*%
%TO.N,Net-(R6-Pad2)*%
X62585000Y-82423000D03*
%TD*%
D20*
%TO.P,C3,1*%
%TO.N,+5V*%
X96901000Y-65697500D03*
%TO.P,C3,2*%
%TO.N,GND*%
X96901000Y-62572500D03*
%TD*%
D27*
%TO.P,D1,1,K*%
%TO.N,+12V*%
X59111000Y-32385000D03*
%TO.P,D1,2,A*%
%TO.N,GND*%
X62611000Y-32385000D03*
%TD*%
D17*
%TO.P,R14,1*%
%TO.N,+5V*%
X72771000Y-65125000D03*
%TO.P,R14,2*%
%TO.N,/(A+B)C*%
X72771000Y-68225000D03*
%TD*%
%TO.P,R9,1*%
%TO.N,TPS_ref*%
X91821000Y-48615000D03*
%TO.P,R9,2*%
%TO.N,Net-(R9-Pad2)*%
X91821000Y-51715000D03*
%TD*%
D30*
%TO.P,Q1,1,B*%
%TO.N,Net-(Q1-Pad1)*%
X94028500Y-32065000D03*
%TO.P,Q1,2,E*%
%TO.N,GND*%
X94028500Y-30165000D03*
%TO.P,Q1,3,C*%
%TO.N,Net-(D4-Pad2)*%
X92153500Y-31115000D03*
%TD*%
D28*
%TO.P,C6,1*%
%TO.N,+5V*%
X52283500Y-32385000D03*
%TO.P,C6,2*%
%TO.N,GND*%
X55158500Y-32385000D03*
%TD*%
%TO.P,C2,1*%
%TO.N,12V_Telem*%
X45085000Y-65659000D03*
%TO.P,C2,2*%
%TO.N,GND*%
X47960000Y-65659000D03*
%TD*%
D31*
%TO.P,D5,1,K*%
%TO.N,Net-(D2-Pad1)*%
X72771000Y-74775000D03*
%TO.P,D5,2,A*%
%TO.N,/(A+B)C*%
X72771000Y-71275000D03*
%TD*%
D21*
%TO.P,R17,1*%
%TO.N,GND*%
X30581000Y-94615000D03*
%TO.P,R17,2*%
%TO.N,Net-(R17-Pad2)*%
X33681000Y-94615000D03*
%TD*%
D14*
%TO.P,J2,1,Pin_1*%
%TO.N,GND*%
X32051000Y-37465000D03*
X27051000Y-37465000D03*
D15*
%TO.P,J2,2,Pin_2*%
X32051000Y-32465000D03*
X27051000Y-32465000D03*
%TD*%
D17*
%TO.P,R1,1*%
%TO.N,+5V*%
X82931000Y-80365000D03*
%TO.P,R1,2*%
%TO.N,TPS*%
X82931000Y-83465000D03*
%TD*%
D31*
%TO.P,D7,1,K*%
%TO.N,Net-(C7-Pad1)*%
X53467000Y-51209000D03*
%TO.P,D7,2,A*%
%TO.N,/(A+B)C*%
X53467000Y-54709000D03*
%TD*%
D32*
%TO.P,U5,1,GND*%
%TO.N,GND*%
X67056000Y-46420000D03*
%TO.P,U5,2,TR*%
%TO.N,Net-(C7-Pad1)*%
X65786000Y-46420000D03*
%TO.P,U5,3,Q*%
%TO.N,RELAY*%
X64516000Y-46420000D03*
%TO.P,U5,4,R*%
%TO.N,+5V*%
X63246000Y-46420000D03*
%TO.P,U5,5,CV*%
%TO.N,unconnected-(U5-Pad5)*%
X63246000Y-51370000D03*
%TO.P,U5,6,THR*%
%TO.N,/(A+B)C*%
X64516000Y-51370000D03*
%TO.P,U5,7,DIS*%
%TO.N,unconnected-(U5-Pad7)*%
X65786000Y-51370000D03*
%TO.P,U5,8,VCC*%
%TO.N,+5V*%
X67056000Y-51370000D03*
%TD*%
D19*
%TO.P,TP3,1,1*%
%TO.N,Net-(TP3-Pad1)*%
X23241000Y-88265000D03*
%TD*%
D15*
%TO.P,F1,1*%
%TO.N,+12C*%
X39931000Y-20955000D03*
%TO.P,F1,2*%
%TO.N,+12V*%
X62431000Y-20955000D03*
%TD*%
D31*
%TO.P,D2,1,K*%
%TO.N,Net-(D2-Pad1)*%
X82931000Y-74775000D03*
%TO.P,D2,2,A*%
%TO.N,Net-(D2-Pad2)*%
X82931000Y-71275000D03*
%TD*%
%TO.P,D3,1,K*%
%TO.N,Net-(D2-Pad1)*%
X93091000Y-74775000D03*
%TO.P,D3,2,A*%
%TO.N,Net-(D3-Pad2)*%
X93091000Y-71275000D03*
%TD*%
%TO.P,D4,1,K*%
%TO.N,+12V*%
X88011000Y-27615000D03*
%TO.P,D4,2,A*%
%TO.N,Net-(D4-Pad2)*%
X88011000Y-31115000D03*
%TD*%
D16*
%TO.P,R12,1*%
%TO.N,Net-(D2-Pad1)*%
X63881000Y-74575000D03*
%TO.P,R12,2*%
%TO.N,GND*%
X63881000Y-71475000D03*
%TD*%
D14*
%TO.P,J7,1,Pin_1*%
%TO.N,Net-(J7-Pad1)*%
X54808500Y-89522500D03*
X54808500Y-94522500D03*
D15*
%TO.P,J7,2,Pin_2*%
X49808500Y-94522500D03*
X49808500Y-89522500D03*
%TD*%
%TO.P,K1,11*%
%TO.N,Net-(K1-Pad11)*%
X83361000Y-23495000D03*
%TO.P,K1,12*%
%TO.N,unconnected-(K1-Pad12)*%
X69161000Y-29495000D03*
%TO.P,K1,14*%
%TO.N,+12C*%
X69161000Y-17495000D03*
%TO.P,K1,A1*%
%TO.N,+12V*%
X81361000Y-17495000D03*
%TO.P,K1,A2*%
%TO.N,Net-(D4-Pad2)*%
X81361000Y-29495000D03*
%TD*%
D21*
%TO.P,R7,1*%
%TO.N,Net-(R17-Pad2)*%
X40741000Y-94615000D03*
%TO.P,R7,2*%
%TO.N,Net-(J7-Pad1)*%
X43841000Y-94615000D03*
%TD*%
D16*
%TO.P,R15,1*%
%TO.N,/(A+B)C*%
X48387000Y-53239000D03*
%TO.P,R15,2*%
%TO.N,Net-(R15-Pad2)*%
X48387000Y-50139000D03*
%TD*%
D33*
%TO.N,GND*%
X28575000Y-94615000D03*
X51943000Y-42545000D03*
X48895000Y-34925000D03*
X48387000Y-67691000D03*
X96393000Y-30353000D03*
X62611000Y-30861000D03*
X79121000Y-58547000D03*
X23241000Y-76073000D03*
X104013000Y-41275000D03*
X69977000Y-46863000D03*
X88011000Y-59563000D03*
X96901000Y-60833000D03*
X56769000Y-32385000D03*
X63881000Y-69215000D03*
X104013000Y-50165000D03*
%TO.N,+5V*%
X88011000Y-70993000D03*
X95631000Y-70993000D03*
X60182528Y-46497472D03*
X88011000Y-78867000D03*
X53467000Y-36449000D03*
X82931000Y-78867000D03*
X93091000Y-78867000D03*
X75819000Y-65151000D03*
X75819000Y-68199000D03*
X67421528Y-53736472D03*
%TO.N,Net-(D2-Pad1)*%
X93091000Y-76835000D03*
X63881000Y-76835000D03*
X72771000Y-76835000D03*
X82931000Y-76835000D03*
%TO.N,TPS*%
X84455000Y-69215000D03*
X88519000Y-63627000D03*
%TD*%
D34*
%TO.N,+12V*%
X59423500Y-23962500D02*
X62431000Y-20955000D01*
X59423500Y-28940500D02*
X58279000Y-30085000D01*
X59423500Y-28575000D02*
X59423500Y-28940500D01*
X77901000Y-20955000D02*
X81361000Y-17495000D01*
X86583000Y-17495000D02*
X88011000Y-18923000D01*
X62431000Y-20955000D02*
X77901000Y-20955000D01*
X81361000Y-17495000D02*
X86583000Y-17495000D01*
X58279000Y-30085000D02*
X59111000Y-30917000D01*
X88011000Y-18923000D02*
X88011000Y-27615000D01*
X59423500Y-28575000D02*
X59423500Y-23962500D01*
X59111000Y-30917000D02*
X59111000Y-32385000D01*
X46711000Y-30085000D02*
X58279000Y-30085000D01*
%TO.N,GND*%
X30581000Y-94615000D02*
X28575000Y-94615000D01*
X55158500Y-32385000D02*
X56769000Y-32385000D01*
X46711000Y-34685000D02*
X48655000Y-34685000D01*
X63881000Y-71475000D02*
X63881000Y-69215000D01*
D35*
X101041000Y-40125000D02*
X102191000Y-41275000D01*
D36*
X97908500Y-94522500D02*
X97908500Y-89522500D01*
D34*
X48401000Y-69875000D02*
X48401000Y-67705000D01*
X62611000Y-32385000D02*
X62611000Y-30861000D01*
D36*
X32051000Y-37465000D02*
X32051000Y-32465000D01*
D34*
X62611000Y-28887500D02*
X62298500Y-28575000D01*
D35*
X53467000Y-44069000D02*
X51943000Y-42545000D01*
X96205000Y-30165000D02*
X96393000Y-30353000D01*
D34*
X96901000Y-62572500D02*
X96901000Y-60833000D01*
D35*
X88011000Y-61660000D02*
X88011000Y-59563000D01*
X72771000Y-47332500D02*
X70446500Y-47332500D01*
X102191000Y-41275000D02*
X104013000Y-41275000D01*
D34*
X62611000Y-30861000D02*
X62611000Y-28887500D01*
D35*
X94028500Y-30165000D02*
X96205000Y-30165000D01*
D34*
X47960000Y-67264000D02*
X48387000Y-67691000D01*
D36*
X27051000Y-37465000D02*
X27051000Y-32465000D01*
D35*
X96691000Y-40125000D02*
X101041000Y-40125000D01*
X102191000Y-50165000D02*
X104013000Y-50165000D01*
D34*
X48401000Y-67705000D02*
X48387000Y-67691000D01*
D36*
X27051000Y-37465000D02*
X32051000Y-37465000D01*
D34*
X23241000Y-77812500D02*
X23241000Y-76073000D01*
D36*
X27051000Y-32465000D02*
X32051000Y-32465000D01*
D35*
X70446500Y-47332500D02*
X69977000Y-46863000D01*
X96691000Y-49015000D02*
X101041000Y-49015000D01*
D34*
X47960000Y-65659000D02*
X47960000Y-67264000D01*
D36*
X66318500Y-89522500D02*
X66318500Y-94522500D01*
D35*
X69534000Y-46420000D02*
X69977000Y-46863000D01*
D34*
X48655000Y-34685000D02*
X48895000Y-34925000D01*
D35*
X67056000Y-46420000D02*
X69534000Y-46420000D01*
D34*
X79121000Y-58547000D02*
X79121000Y-60045000D01*
D35*
X101041000Y-49015000D02*
X102191000Y-50165000D01*
D34*
%TO.N,12V_Telem*%
X43801000Y-66943000D02*
X43801000Y-69875000D01*
D36*
X27143500Y-69032500D02*
X27143500Y-64032500D01*
D34*
X32298500Y-69187500D02*
X32143500Y-69032500D01*
X32986000Y-69875000D02*
X32143500Y-69032500D01*
D36*
X27143500Y-69032500D02*
X32143500Y-69032500D01*
D34*
X45085000Y-65659000D02*
X43801000Y-66943000D01*
X43801000Y-69875000D02*
X32986000Y-69875000D01*
D36*
X32143500Y-64032500D02*
X32143500Y-69032500D01*
X27143500Y-64032500D02*
X32143500Y-64032500D01*
D34*
%TO.N,+5V*%
X70700500Y-50457500D02*
X67421528Y-53736472D01*
D35*
X67056000Y-53370944D02*
X67421528Y-53736472D01*
X96901000Y-65697500D02*
X96901000Y-69723000D01*
X60260000Y-46420000D02*
X60182528Y-46497472D01*
D34*
X72771000Y-50457500D02*
X70700500Y-50457500D01*
D35*
X88011000Y-70231000D02*
X88011000Y-78867000D01*
D34*
X93091000Y-80365000D02*
X93091000Y-78867000D01*
X75793000Y-65125000D02*
X75819000Y-65151000D01*
D35*
X88011000Y-70231000D02*
X88011000Y-66610000D01*
D34*
X82931000Y-80365000D02*
X82931000Y-78867000D01*
X46711000Y-32385000D02*
X52283500Y-32385000D01*
X88011000Y-80365000D02*
X88011000Y-78867000D01*
X86969000Y-42825000D02*
X85217000Y-44577000D01*
D35*
X88011000Y-70993000D02*
X88011000Y-70231000D01*
X63246000Y-46420000D02*
X60260000Y-46420000D01*
D34*
X72771000Y-50457500D02*
X85178500Y-50457500D01*
X75845000Y-68225000D02*
X75819000Y-68199000D01*
X72771000Y-65125000D02*
X75793000Y-65125000D01*
X52283500Y-35265500D02*
X53467000Y-36449000D01*
X79121000Y-68225000D02*
X75845000Y-68225000D01*
X85217000Y-44577000D02*
X85217000Y-50419000D01*
D35*
X96901000Y-69723000D02*
X95631000Y-70993000D01*
D34*
X52283500Y-32385000D02*
X52283500Y-35265500D01*
X88011000Y-42825000D02*
X86969000Y-42825000D01*
X86513000Y-51715000D02*
X88011000Y-51715000D01*
D35*
X67056000Y-51370000D02*
X67056000Y-53370944D01*
D34*
X85217000Y-50419000D02*
X86513000Y-51715000D01*
X85178500Y-50457500D02*
X85217000Y-50419000D01*
%TO.N,Net-(C4-Pad1)*%
X46101000Y-72009000D02*
X46101000Y-69875000D01*
X31105000Y-80655000D02*
X38735000Y-73025000D01*
X45085000Y-73025000D02*
X46101000Y-72009000D01*
X23241000Y-80937500D02*
X28048500Y-80937500D01*
X28048500Y-80937500D02*
X28331000Y-80655000D01*
X38735000Y-73025000D02*
X45085000Y-73025000D01*
X28331000Y-80655000D02*
X31105000Y-80655000D01*
%TO.N,Net-(C7-Pad1)*%
X48421500Y-44744500D02*
X48387000Y-44779000D01*
X50165000Y-44744500D02*
X48421500Y-44744500D01*
X53467000Y-51209000D02*
X53467000Y-48895000D01*
X53467000Y-46944000D02*
X52364500Y-46944000D01*
X52364500Y-46944000D02*
X50165000Y-44744500D01*
X53467000Y-48895000D02*
X53467000Y-46944000D01*
D35*
X64897000Y-48895000D02*
X53467000Y-48895000D01*
X65786000Y-46420000D02*
X65786000Y-48006000D01*
X65786000Y-48006000D02*
X64897000Y-48895000D01*
D34*
%TO.N,Net-(D2-Pad1)*%
X93091000Y-74775000D02*
X93091000Y-76835000D01*
X72771000Y-74775000D02*
X72771000Y-76835000D01*
X82931000Y-74775000D02*
X82931000Y-76835000D01*
X63881000Y-74575000D02*
X63881000Y-76835000D01*
D35*
%TO.N,Net-(D2-Pad2)*%
X82931000Y-71275000D02*
X82931000Y-67880000D01*
X82931000Y-67880000D02*
X84201000Y-66610000D01*
%TO.N,Net-(D3-Pad2)*%
X93091000Y-67880000D02*
X91821000Y-66610000D01*
X93091000Y-71275000D02*
X93091000Y-67880000D01*
D34*
%TO.N,Net-(D4-Pad2)*%
X81361000Y-29495000D02*
X82981000Y-31115000D01*
X82981000Y-31115000D02*
X88011000Y-31115000D01*
D35*
X92153500Y-31115000D02*
X88011000Y-31115000D01*
D34*
%TO.N,/(A+B)C*%
X53467000Y-54709000D02*
X49857000Y-54709000D01*
D35*
X71019000Y-68225000D02*
X72771000Y-68225000D01*
X64516000Y-61722000D02*
X71019000Y-68225000D01*
X64516000Y-53340000D02*
X64516000Y-61722000D01*
D34*
X49857000Y-54709000D02*
X48387000Y-53239000D01*
D35*
X64516000Y-53340000D02*
X63147000Y-54709000D01*
X87531000Y-56515000D02*
X67691000Y-56515000D01*
X63147000Y-54709000D02*
X53467000Y-54709000D01*
D34*
X72771000Y-68225000D02*
X72771000Y-71275000D01*
D35*
X67691000Y-56515000D02*
X64516000Y-53340000D01*
X64516000Y-51370000D02*
X64516000Y-53340000D01*
%TO.N,Net-(D6-Pad1)*%
X91821000Y-61660000D02*
X91821000Y-57305000D01*
X91821000Y-57305000D02*
X91031000Y-56515000D01*
D34*
%TO.N,+12C*%
X69161000Y-17495000D02*
X43391000Y-17495000D01*
D36*
X27051000Y-23312500D02*
X32051000Y-23312500D01*
X32131000Y-20955000D02*
X32051000Y-21035000D01*
X39931000Y-20955000D02*
X32131000Y-20955000D01*
X27051000Y-18312500D02*
X32051000Y-18312500D01*
X32051000Y-18312500D02*
X32051000Y-21035000D01*
D34*
X43391000Y-17495000D02*
X39931000Y-20955000D01*
D36*
X27051000Y-18312500D02*
X27051000Y-23312500D01*
X32051000Y-21035000D02*
X32051000Y-23312500D01*
D35*
%TO.N,Brake2*%
X93091000Y-83465000D02*
X92908500Y-83647500D01*
X93091000Y-83465000D02*
X90551000Y-80925000D01*
X89281000Y-75057000D02*
X89281000Y-66610000D01*
D36*
X92908500Y-94522500D02*
X92908500Y-89522500D01*
D35*
X90551000Y-76327000D02*
X89281000Y-75057000D01*
X90551000Y-80925000D02*
X90551000Y-76327000D01*
D34*
X92908500Y-83647500D02*
X92908500Y-89522500D01*
D35*
%TO.N,Brake1*%
X88011000Y-83465000D02*
X87021000Y-83465000D01*
D34*
X87908500Y-83567500D02*
X87908500Y-89522500D01*
D35*
X85979000Y-82423000D02*
X85979000Y-78867000D01*
X88011000Y-83465000D02*
X87908500Y-83567500D01*
X87021000Y-83465000D02*
X85979000Y-82423000D01*
X85979000Y-78867000D02*
X86741000Y-78105000D01*
D36*
X87908500Y-94522500D02*
X87908500Y-89522500D01*
D35*
X86741000Y-78105000D02*
X86741000Y-66610000D01*
D36*
%TO.N,TPS*%
X82908500Y-94522500D02*
X82908500Y-89522500D01*
D35*
X84963000Y-69723000D02*
X84455000Y-69215000D01*
X89281000Y-62865000D02*
X89281000Y-61660000D01*
X83921000Y-83465000D02*
X84963000Y-82423000D01*
X84963000Y-82423000D02*
X84963000Y-69723000D01*
X82931000Y-83465000D02*
X82908500Y-83487500D01*
D34*
X82908500Y-83487500D02*
X82908500Y-89522500D01*
D35*
X88519000Y-63627000D02*
X89281000Y-62865000D01*
X82931000Y-83465000D02*
X83921000Y-83465000D01*
D34*
%TO.N,LED*%
X70231000Y-82423000D02*
X71318500Y-83510500D01*
X71318500Y-83510500D02*
X71318500Y-89522500D01*
D36*
X71318500Y-94522500D02*
X71318500Y-89522500D01*
D34*
X65685000Y-82423000D02*
X70231000Y-82423000D01*
D35*
%TO.N,Net-(Q1-Pad1)*%
X91821000Y-34925000D02*
X89561000Y-34925000D01*
X94028500Y-32717500D02*
X91821000Y-34925000D01*
X94028500Y-32065000D02*
X94028500Y-32717500D01*
%TO.N,Brake_ref*%
X90043000Y-64643000D02*
X90551000Y-65151000D01*
X105283000Y-47625000D02*
X103251000Y-45593000D01*
X88011000Y-39725000D02*
X89815000Y-39725000D01*
X85979000Y-64643000D02*
X90043000Y-64643000D01*
X103251000Y-45593000D02*
X90805000Y-45593000D01*
X90551000Y-65151000D02*
X90551000Y-66610000D01*
X85471000Y-65151000D02*
X85979000Y-64643000D01*
X90551000Y-65151000D02*
X91313000Y-64389000D01*
X89789000Y-44577000D02*
X89789000Y-39751000D01*
X85471000Y-66610000D02*
X85471000Y-65151000D01*
X89815000Y-39725000D02*
X91821000Y-39725000D01*
X92583000Y-64389000D02*
X94107000Y-62865000D01*
X102489000Y-55753000D02*
X105283000Y-52959000D01*
X105283000Y-52959000D02*
X105283000Y-47625000D01*
X94107000Y-62865000D02*
X94107000Y-59817000D01*
X89789000Y-39751000D02*
X89815000Y-39725000D01*
X98171000Y-55753000D02*
X102489000Y-55753000D01*
X91313000Y-64389000D02*
X92583000Y-64389000D01*
X90805000Y-45593000D02*
X89789000Y-44577000D01*
X94107000Y-59817000D02*
X98171000Y-55753000D01*
%TO.N,Net-(R5-Pad2)*%
X96691000Y-42425000D02*
X92221000Y-42425000D01*
X92221000Y-42425000D02*
X91821000Y-42825000D01*
D34*
%TO.N,Net-(R6-Pad2)*%
X42281000Y-83195000D02*
X42291000Y-83185000D01*
X42291000Y-83185000D02*
X43053000Y-82423000D01*
X43053000Y-82423000D02*
X62585000Y-82423000D01*
X35951000Y-83195000D02*
X42281000Y-83195000D01*
D36*
%TO.N,Net-(K1-Pad11)*%
X94348500Y-18597500D02*
X94348500Y-23597500D01*
X94348500Y-23597500D02*
X99348500Y-23597500D01*
X99348500Y-18597500D02*
X99348500Y-23597500D01*
X94348500Y-18597500D02*
X99348500Y-18597500D01*
D35*
%TO.N,TPS_ref*%
X90551000Y-60071000D02*
X89281000Y-58801000D01*
X89815000Y-48615000D02*
X91821000Y-48615000D01*
X89815000Y-53187000D02*
X89815000Y-48615000D01*
X90551000Y-61660000D02*
X90551000Y-60071000D01*
X89281000Y-58801000D02*
X89281000Y-53721000D01*
X88011000Y-48615000D02*
X89815000Y-48615000D01*
X89281000Y-53721000D02*
X89815000Y-53187000D01*
%TO.N,Net-(R9-Pad2)*%
X96691000Y-51315000D02*
X92221000Y-51315000D01*
X92221000Y-51315000D02*
X91821000Y-51715000D01*
%TO.N,Net-(R10-Pad2)*%
X86741000Y-62283559D02*
X85397559Y-63627000D01*
X86741000Y-61660000D02*
X86741000Y-62283559D01*
X80111000Y-64135000D02*
X79121000Y-63145000D01*
X80619000Y-63627000D02*
X80111000Y-64135000D01*
X85397559Y-63627000D02*
X80619000Y-63627000D01*
X79121000Y-65125000D02*
X80111000Y-64135000D01*
%TO.N,RELAY*%
X74041000Y-34925000D02*
X64516000Y-44450000D01*
X86461000Y-34925000D02*
X74041000Y-34925000D01*
X64516000Y-44450000D02*
X64516000Y-46420000D01*
D34*
%TO.N,Net-(R15-Pad2)*%
X48387000Y-50139000D02*
X48387000Y-47879000D01*
%TO.N,Net-(TP1-Pad1)*%
X35951000Y-85735000D02*
X39761000Y-85735000D01*
X39761000Y-85735000D02*
X42291000Y-88265000D01*
%TO.N,Net-(TP3-Pad1)*%
X28331000Y-88275000D02*
X23251000Y-88275000D01*
X23251000Y-88275000D02*
X23241000Y-88265000D01*
D35*
%TO.N,Net-(U4-Pad13)*%
X84201000Y-61660000D02*
X85471000Y-61660000D01*
D36*
%TO.N,Net-(J7-Pad1)*%
X49808500Y-94522500D02*
X54808500Y-94522500D01*
X54808500Y-89522500D02*
X54808500Y-94522500D01*
D34*
X49716000Y-94615000D02*
X49808500Y-94522500D01*
D36*
X49808500Y-89522500D02*
X54808500Y-89522500D01*
X49808500Y-89522500D02*
X49808500Y-94522500D01*
D34*
X43841000Y-94615000D02*
X49716000Y-94615000D01*
%TO.N,Net-(R17-Pad2)*%
X35951000Y-94615000D02*
X35951000Y-88275000D01*
X33681000Y-94615000D02*
X35951000Y-94615000D01*
X40741000Y-94615000D02*
X33681000Y-94615000D01*
%TD*%
M02*
